<?xml version="1.0" encoding="utf-8"?>
<!-- Generator: Adobe Illustrator 18.1.0, SVG Export Plug-In . SVG Version: 6.00 Build 0)  -->
<!DOCTYPE svg PUBLIC "-//W3C//DTD SVG 1.1//EN" "http://www.w3.org/Graphics/SVG/1.1/DTD/svg11.dtd">
<svg version="1.1" id="Layer_1" xmlns="http://www.w3.org/2000/svg" xmlns:xlink="http://www.w3.org/1999/xlink" x="0px" y="0px"
	 viewBox="0 0 144 144" enable-background="new 0 0 144 144" xml:space="preserve">
<g>
	<g>
		<path fill="#FFFFFF" d="M72,104.5c-17.8,0-32.3-14.5-32.3-32.3C39.7,54.5,54.2,40,72,40c17.8,0,32.3,14.5,32.3,32.3
			C104.3,90,89.8,104.5,72,104.5z M72,43c-16.1,0-29.3,13.1-29.3,29.3s13.1,29.3,29.3,29.3s29.3-13.1,29.3-29.3S88.1,43,72,43z"/>
	</g>
</g>
<g>
	<path fill="#FFFFFF" d="M72,87.4c-0.5,0-1-0.2-1.4-0.6l-20-19.9c-0.8-0.8-0.8-2,0-2.8s2-0.8,2.8,0L72,82.6l18.5-18.5
		c0.8-0.8,2-0.8,2.8,0c0.8,0.8,0.8,2,0,2.8L73.4,86.8C73,87.2,72.5,87.4,72,87.4z"/>
</g>
</svg>
