<?xml version="1.0" encoding="utf-8"?>
<!-- Generator: Adobe Illustrator 18.1.0, SVG Export Plug-In . SVG Version: 6.00 Build 0)  -->
<!DOCTYPE svg PUBLIC "-//W3C//DTD SVG 1.1//EN" "http://www.w3.org/Graphics/SVG/1.1/DTD/svg11.dtd">
<svg version="1.1" id="Layer_1" xmlns="http://www.w3.org/2000/svg" xmlns:xlink="http://www.w3.org/1999/xlink" x="0px" y="0px"
	 viewBox="0 0 216 216" enable-background="new 0 0 216 216" xml:space="preserve">
<g>
	<rect x="25.6" y="79.9" fill="#808080" width="164.8" height="109.2"/>
</g>
<g>
	<polygon fill="#808080" points="25,80 108.7,23.2 191.1,80 	"/>
</g>
<g>
	<g>
		<rect x="53.5" y="15.4" fill="#FFFFFF" width="109.2" height="164.9"/>
		<path fill="#E6E6E6" d="M164,181.7h-112V14h112V181.7z M54.8,178.9h106.5V16.8H54.8V178.9z"/>
	</g>
	<g>
		<rect x="71" y="56" fill="#E6E6E6" width="29" height="7"/>
	</g>
	<g>
		<rect x="71" y="72" fill="#E6E6E6" width="79" height="3"/>
	</g>
	<g>
		<rect x="71" y="85" fill="#E6E6E6" width="79" height="3"/>
	</g>
	<g>
		<rect x="71" y="96" fill="#E6E6E6" width="79" height="3"/>
	</g>
	<g>
		<rect x="71" y="108" fill="#E6E6E6" width="79" height="3"/>
	</g>
</g>
<g>
	<polygon fill="#F2F2F2" points="190.5,189.1 25.6,189.1 190.5,79.9 	"/>
	<path fill="#E6E6E6" d="M190.5,190.5H25.6c-0.6,0-1.1-0.4-1.3-1c-0.2-0.6,0.1-1.2,0.6-1.5L189.7,78.8c0.4-0.3,1-0.3,1.4-0.1
		c0.4,0.2,0.7,0.7,0.7,1.2v109.2C191.9,189.9,191.2,190.5,190.5,190.5z M30.2,187.8h158.9V82.5L30.2,187.8z"/>
</g>
<g>
	<polygon fill="#FFFFFF" points="25.6,189.1 190.5,189.1 25.6,79.9 	"/>
	<path fill="#E6E6E6" d="M190.5,190.5H25.6c-0.8,0-1.4-0.6-1.4-1.4V79.9c0-0.5,0.3-1,0.7-1.2c0.4-0.2,1-0.2,1.4,0.1L191.2,188
		c0.5,0.3,0.7,1,0.6,1.5C191.6,190.1,191.1,190.5,190.5,190.5z M27,187.8h158.9L27,82.5V187.8z"/>
</g>
<g>
	<circle fill="#432A40" cx="129" cy="44.7" r="16.3"/>
</g>
<g>
	<circle fill="#FFFFFF" cx="135.5" cy="40.4" r="2.1"/>
</g>
<g>
	<circle fill="#FFFFFF" cx="124" cy="38" r="2.1"/>
</g>
<g>
	<path fill="#FFFFFF" d="M128.6,55.9c-0.8,0-1.5-0.1-2.3-0.2c-5-1.1-8.6-5.4-8.8-10.6c0-0.4,0.3-0.7,0.7-0.7c0.4,0,0.7,0.3,0.7,0.7
		c0.1,4.5,3.3,8.3,7.7,9.2c4.3,0.9,8.6-1.2,10.6-5.1c0.2-0.3,0.6-0.5,0.9-0.3c0.3,0.2,0.5,0.6,0.3,0.9
		C136.6,53.6,132.7,55.9,128.6,55.9z"/>
</g>
</svg>
