<?xml version="1.0" encoding="utf-8"?>
<!-- Generator: Adobe Illustrator 18.1.0, SVG Export Plug-In . SVG Version: 6.00 Build 0)  -->
<!DOCTYPE svg PUBLIC "-//W3C//DTD SVG 1.1//EN" "http://www.w3.org/Graphics/SVG/1.1/DTD/svg11.dtd">
<svg version="1.1" id="Layer_1" xmlns="http://www.w3.org/2000/svg" xmlns:xlink="http://www.w3.org/1999/xlink" x="0px" y="0px"
	 viewBox="0 0 216 216" enable-background="new 0 0 216 216" xml:space="preserve">
<circle fill="#333333" cx="107.6" cy="108.6" r="88.2"/>
<g>
	<g>
		<g>
			<polygon fill="#999999" points="139.1,156.1 99.3,156.1 107.4,140.3 131,140.3 			"/>
			<path fill="#E6E6E6" d="M145.4,158.1H93c-0.6,0-1.1-0.5-1.1-1.1v-0.6c0-0.6,0.5-1.1,1.1-1.1h52.4c0.6,0,1.1,0.5,1.1,1.1v0.6
				C146.4,157.7,146,158.1,145.4,158.1z"/>
			<path fill="#E6E6E6" d="M188.9,132.7H49.5v-76c0-1.8,1.4-3.2,3.2-3.2h133c1.8,0,3.2,1.4,3.2,3.2V132.7z"/>
			<path fill="#E6E6E6" d="M181.3,141.8H57.1c-4.2,0-7.6-3.4-7.6-7.6v-2h139.5v2C188.9,138.3,185.5,141.8,181.3,141.8z"/>
			<rect x="55.5" y="58.3" fill="#432A40" width="128.3" height="69.4"/>
		</g>
		<rect x="55.5" y="58.3" fill="#FFFFFF" width="128.3" height="10.8"/>
		<text transform="matrix(1 0 0 1 142.1206 65.4136)" fill="#333333" font-family="'UniversLTStd-Light'" font-size="3.7252">home  gallery  about</text>
		<g>
			<circle fill="#333333" cx="64.4" cy="64" r="2.7"/>
			<g>
				<path fill="#FFFFFF" d="M65,62.7C65,62.7,65.1,62.7,65,62.7c0.1,0,0.2,0,0.2,0l0.5,0.5c0,0,0,0.1,0,0.1c0,0,0,0.1,0,0.1L65.1,64
					c0,0,0,0.1,0,0.1s0,0.1,0,0.1l0.6,0.6c0,0,0,0.1,0,0.1c0,0,0,0.1,0,0.1l-0.5,0.5c0,0-0.1,0-0.1,0c0,0-0.1,0-0.1,0l-0.6-0.6
					c0,0-0.1,0-0.1,0c0,0-0.1,0-0.1,0l-0.6,0.6c0,0-0.1,0-0.1,0c0,0-0.1,0-0.1,0L63,64.9c0,0,0-0.1,0-0.1c0,0,0-0.1,0-0.1l0.6-0.6
					c0,0,0-0.1,0-0.1s0-0.1,0-0.1L63,63.4c0,0,0-0.1,0-0.1c0,0,0-0.1,0-0.1l0.5-0.5c0,0,0.1,0,0.1,0c0,0,0.1,0,0.1,0l0.6,0.6
					c0,0,0.1,0,0.1,0c0,0,0.1,0,0.1,0L65,62.7z"/>
			</g>
		</g>
	</g>
	<rect x="141" y="69.2" opacity="0.1" fill="#FFFFFF" width="42.8" height="58.5"/>
	<rect x="55.8" y="69.2" opacity="0.1" fill="#FFFFFF" width="42.8" height="58.5"/>
</g>
<g>
	<g>
		<path fill="#E6E6E6" d="M94.5,166.3H29.6c-1.8,0-3.3-1.5-3.3-3.3v-49.9c0-1.8,1.5-3.3,3.3-3.3h64.9c1.8,0,3.3,1.5,3.3,3.3V163
			C97.8,164.8,96.3,166.3,94.5,166.3z"/>
		<rect x="30" y="113.1" fill="#432A40" width="64.1" height="44.5"/>
		<circle fill="none" stroke="#333333" stroke-width="0.25" stroke-miterlimit="10" cx="62" cy="161.2" r="2.2"/>
		<rect x="30" y="113.1" opacity="0.2" fill="#FFFFFF" width="32.1" height="44.5"/>
	</g>
	<rect x="30" y="113.1" fill="#FFFFFF" width="64.1" height="7.4"/>
	<g>
		<circle fill="#333333" cx="34.6" cy="117.1" r="2.1"/>
		<g>
			<path fill="#FFFFFF" d="M35.1,116.1C35.1,116.1,35.1,116.1,35.1,116.1c0.1,0,0.1,0,0.1,0l0.4,0.4c0,0,0,0,0,0.1s0,0.1,0,0.1
				l-0.4,0.4c0,0,0,0,0,0.1s0,0.1,0,0.1l0.4,0.4c0,0,0,0,0,0.1s0,0.1,0,0.1l-0.4,0.4c0,0,0,0-0.1,0c0,0-0.1,0-0.1,0l-0.4-0.4
				c0,0,0,0-0.1,0c0,0-0.1,0-0.1,0l-0.4,0.4c0,0,0,0-0.1,0c0,0-0.1,0-0.1,0l-0.4-0.4c0,0,0,0,0-0.1s0-0.1,0-0.1l0.4-0.4
				c0,0,0,0,0-0.1s0-0.1,0-0.1l-0.4-0.4c0,0,0,0,0-0.1s0-0.1,0-0.1l0.4-0.4c0,0,0,0,0.1,0c0,0,0.1,0,0.1,0l0.4,0.4c0,0,0,0,0.1,0
				c0,0,0.1,0,0.1,0L35.1,116.1z"/>
		</g>
	</g>
	<text transform="matrix(1 0 0 1 65.4438 117.9922)" fill="#333333" font-family="'UniversLTStd-Light'" font-size="2.7939">home  gallery  about</text>
</g>
<g>
	<g>
		<path fill="#E6E6E6" d="M101.9,179.4H77.7c-1.1,0-2.1-0.9-2.1-2.1v-52.4c0-1.1,0.9-2.1,2.1-2.1h24.1c1.1,0,2.1,0.9,2.1,2.1v52.4
			C103.9,178.4,103,179.4,101.9,179.4z"/>
		<rect x="78.2" y="126.1" fill="#432A40" width="23.3" height="44.5"/>
		<circle fill="none" stroke="#333333" stroke-width="0.25" stroke-miterlimit="10" cx="89.8" cy="174.3" r="2.2"/>
	</g>
	<rect x="78.2" y="136.4" opacity="0.7" fill="#FFFFFF" width="23.3" height="4.7"/>
	<rect x="78.2" y="141.1" opacity="0.7" fill="#FFFFFF" width="23.3" height="4.7"/>
	<rect x="78.2" y="145.8" opacity="0.7" fill="#FFFFFF" width="23.3" height="4.7"/>
	<text transform="matrix(1 0 0 1 86.2432 139.8233)"><tspan x="0" y="0" fill="#FFFFFF" font-family="'UniversLTStd-Light'" font-size="2.7939">home</tspan><tspan x="0" y="4.7" fill="#FFFFFF" font-family="'UniversLTStd-Light'" font-size="2.7939">gallery</tspan><tspan x="0" y="9.3" fill="#FFFFFF" font-family="'UniversLTStd-Light'" font-size="2.7939">about</tspan></text>
	<rect x="78.2" y="126.1" fill="#FFFFFF" width="23.3" height="10.2"/>
	<g>
		<circle fill="#333333" cx="89.5" cy="131" r="3.1"/>
		<g>
			<path fill="#FFFFFF" d="M90.3,129.6c0,0,0.1,0,0.1,0c0,0,0.1,0,0.1,0l0.5,0.5c0,0,0,0.1,0,0.1c0,0,0,0.1,0,0.1l-0.6,0.6
				c0,0,0,0.1,0,0.1s0,0.1,0,0.1l0.6,0.6c0,0,0,0.1,0,0.1c0,0,0,0.1,0,0.1l-0.5,0.5c0,0-0.1,0-0.1,0c0,0-0.1,0-0.1,0l-0.6-0.6
				c0,0-0.1,0-0.1,0c0,0-0.1,0-0.1,0l-0.6,0.6c0,0-0.1,0-0.1,0c0,0-0.1,0-0.1,0l-0.5-0.5c0,0,0-0.1,0-0.1c0,0,0-0.1,0-0.1l0.6-0.6
				c0,0,0-0.1,0-0.1s0-0.1,0-0.1l-0.6-0.6c0,0,0-0.1,0-0.1c0,0,0-0.1,0-0.1l0.5-0.5c0,0,0.1,0,0.1,0c0,0,0.1,0,0.1,0l0.6,0.6
				c0,0,0.1,0,0.1,0c0,0,0.1,0,0.1,0L90.3,129.6z"/>
		</g>
	</g>
</g>
</svg>
