<?xml version="1.0" encoding="utf-8"?>
<!-- Generator: Adobe Illustrator 18.1.0, SVG Export Plug-In . SVG Version: 6.00 Build 0)  -->
<!DOCTYPE svg PUBLIC "-//W3C//DTD SVG 1.1//EN" "http://www.w3.org/Graphics/SVG/1.1/DTD/svg11.dtd">
<svg version="1.1" id="Layer_1" xmlns="http://www.w3.org/2000/svg" xmlns:xlink="http://www.w3.org/1999/xlink" x="0px" y="0px"
	 viewBox="0 0 222 219" enable-background="new 0 0 222 219" xml:space="preserve">
<path fill="none" stroke="#FFFFFF" stroke-width="3" stroke-miterlimit="10" d="M112,5.8C54.6,5.8,8,52.4,8,109.8s46.6,104,104,104
	s104-46.6,104-104S169.5,5.8,112,5.8z M187,95.9l-71.7,71.7c-0.8,1-2,1.6-3.4,1.6c-1.3,0-2.3-0.5-3.1-1.6L37.1,95.9
	c-1-0.8-1.6-2-1.6-3.4c0-1.2,0.5-2.3,1.6-3.1l17.2-17.2c0.8-1,1.9-1.6,3.1-1.6s2.4,0.5,3.4,1.6l51,51c17.1-17.1,34.2-34.1,51.3-51
	c0.8-1,2-1.6,3.4-1.6c1.2,0,2.3,0.5,3.1,1.6L187,89.3c1,0.8,1.6,1.9,1.6,3.1C188.5,93.9,188,95.1,187,95.9z"/>
</svg>
