<?xml version="1.0" encoding="utf-8"?>
<!-- Generator: Adobe Illustrator 18.1.0, SVG Export Plug-In . SVG Version: 6.00 Build 0)  -->
<!DOCTYPE svg PUBLIC "-//W3C//DTD SVG 1.1//EN" "http://www.w3.org/Graphics/SVG/1.1/DTD/svg11.dtd">
<svg version="1.1" id="Layer_1" xmlns="http://www.w3.org/2000/svg" xmlns:xlink="http://www.w3.org/1999/xlink" x="0px" y="0px"
	 viewBox="0 0 216 216" enable-background="new 0 0 216 216" xml:space="preserve">
<circle fill="#333333" cx="107.6" cy="111.6" r="88.2"/>
<path fill="#FFFFFF" stroke="#E6E6E6" stroke-width="3" stroke-miterlimit="10" d="M26.8,154.3l0.7-91c0-5.1,4.2-9.3,9.4-9.2
	l146.6,1.2c5.1,0,9.3,4.2,9.2,9.4l-0.7,91c0,5.1-4.2,9.3-9.4,9.2L36,163.7C30.9,163.6,26.7,159.4,26.8,154.3z"/>
<circle fill="#4E4441" cx="-56.3" cy="-61.5" r="15.7"/>
<circle fill="#646267" cx="-19.4" cy="-61.5" r="15.7"/>
<circle fill="#7D867A" cx="17.5" cy="-61.5" r="15.7"/>
<circle fill="#ADA981" cx="54.4" cy="-61.5" r="15.7"/>
<circle fill="#FFDA93" cx="-240.7" cy="-61.5" r="15.7"/>
<circle fill="#5E8065" cx="238.8" cy="-61.5" r="15.7"/>
<circle fill="#9EB275" cx="165" cy="-61.5" r="15.7"/>
<circle fill="#A2D5B1" cx="423.2" cy="-61.5" r="15.7"/>
<circle fill="#FFEEB1" cx="-277.6" cy="-61.5" r="15.7"/>
<circle fill="#BDC39B" cx="128.1" cy="-61.5" r="15.7"/>
<circle fill="#87A580" cx="201.9" cy="-61.5" r="15.7"/>
<circle fill="#BAB78E" cx="91.2" cy="-61.5" r="15.7"/>
<circle fill="#D3AB7A" cx="-203.8" cy="-61.5" r="15.7"/>
<circle fill="#DA6559" cx="-166.9" cy="-61.5" r="15.7"/>
<circle fill="#D94748" cx="-130" cy="-61.5" r="15.7"/>
<circle fill="#173E43" cx="275.6" cy="-61.5" r="15.7"/>
<circle fill="#225D61" cx="312.5" cy="-61.5" r="15.7"/>
<circle fill="#005A76" cx="349.4" cy="-61.5" r="15.7"/>
<circle fill="#007E9A" cx="386.3" cy="-61.5" r="15.7"/>
<circle fill="#432A40" cx="-93.2" cy="-61.5" r="15.7"/>
<g>
	<path fill="#FFFFFF" stroke="#F2F2F2" stroke-miterlimit="10" d="M63.5,71.1c-0.6-2.8-2.1-4-5-3.5l-16.2,3.2
		c-2.9,0.6-5.3,2.6-4.7,5.4l19.6,98.6c0.6,2.8,3.8,5.4,6.7,4.8l16.2-3.2c2.9-0.6,3.5-3.9,3-6.7L63.5,71.1z M78.3,171.4
		c-1.8,0.4-3.5-0.8-3.9-2.5c-0.3-1.7,0.8-3.5,2.6-3.8c1.8-0.4,3.5,0.8,3.9,2.5C81.2,169.4,80.1,171.1,78.3,171.4z"/>
	
		<rect x="38.9" y="74.4" transform="matrix(0.9808 -0.1951 0.1951 0.9808 -15.226 11.8396)" fill="#D94748" width="27.1" height="17.6"/>
	
		<rect x="43.4" y="96.8" transform="matrix(0.9808 -0.1951 0.1951 0.9808 -19.5068 13.1382)" opacity="0.8" fill="#D94748" width="27.1" height="17.6"/>
	
		<rect x="47.8" y="119.2" transform="matrix(0.9808 -0.1951 0.1951 0.9808 -23.7875 14.4368)" opacity="0.6" fill="#D94748" width="27.1" height="17.6"/>
	
		<rect x="52.3" y="141.6" transform="matrix(0.9808 -0.1951 0.1951 0.9808 -28.0682 15.7353)" opacity="0.4" fill="#D94748" width="27.1" height="17.6"/>
	
		<rect x="59" y="72.4" transform="matrix(0.9808 -0.1951 0.1951 0.9808 -21.7503 15.1521)" opacity="0.3" fill="#FFFFFF" width="14.1" height="91.1"/>
</g>
<g>
	<path fill="#FFFFFF" stroke="#F2F2F2" stroke-miterlimit="10" d="M78.3,70.3c-0.1-2.9-1.8-5-4.7-4.8L57,66.3
		c-3,0.1-5.3,2.4-5.1,5.3L56.7,172c0.1,2.9,2.7,5.2,5.6,5.1l16.5-0.8c3-0.1,4.3-2.7,4.2-5.5L78.3,70.3z M77.8,171.8
		c-1.8,0.1-3.4-1.3-3.5-3.1c-0.1-1.8,1.3-3.3,3.2-3.4c1.8-0.1,3.4,1.3,3.5,3.1C81.1,170.2,79.6,171.7,77.8,171.8z"/>
	
		<rect x="51.8" y="71.9" transform="matrix(0.9989 -4.793753e-02 4.793753e-02 0.9989 -3.7953 3.2259)" fill="#432A40" width="27.1" height="17.6"/>
	
		<rect x="52.9" y="94.7" transform="matrix(0.9989 -4.793753e-02 4.793753e-02 0.9989 -4.8867 3.3046)" fill="#432A40" width="27.1" height="17.6"/>
	
		<rect x="54" y="117.5" transform="matrix(0.9989 -4.793753e-02 4.793753e-02 0.9989 -5.978 3.3832)" fill="#432A40" width="27.1" height="17.6"/>
	
		<rect x="55.1" y="140.3" transform="matrix(0.9989 -4.793753e-02 4.793753e-02 0.9989 -7.0694 3.4618)" fill="#432A40" width="27.1" height="17.6"/>
	
		<rect x="66.6" y="71.6" transform="matrix(0.9989 -4.793753e-02 4.793753e-02 0.9989 -5.5307 3.6639)" opacity="0.3" fill="#FFFFFF" width="14.1" height="91.1"/>
</g>
<g>
	<path fill="#FFFFFF" stroke="#F2F2F2" stroke-miterlimit="10" d="M87.4,70.9c0.1-2.9-1.3-5.1-4.2-5.2l-16.5-0.8
		c-3-0.1-5.5,1.9-5.6,4.8l-4.6,100.4c-0.1,2.9,2.2,5.4,5.1,5.6l16.5,0.8c3,0.1,4.6-2.3,4.7-5.1L87.4,70.9z M77.5,171.8
		c-1.8-0.1-3.3-1.6-3.2-3.4c0.1-1.8,1.6-3.2,3.5-3.1c1.8,0.1,3.3,1.6,3.2,3.4C80.9,170.5,79.3,171.9,77.5,171.8z"/>
	
		<rect x="60" y="71.2" transform="matrix(0.999 4.549038e-02 -4.549038e-02 0.999 3.716 -3.2646)" fill="#007E9A" width="27.1" height="17.6"/>
	
		<rect x="59" y="94" transform="matrix(0.999 4.549038e-02 -4.549038e-02 0.999 4.7519 -3.1938)" fill="#007E9A" width="27.1" height="17.6"/>
	
		<rect x="57.9" y="116.8" transform="matrix(0.999 4.549038e-02 -4.549038e-02 0.999 5.7877 -3.123)" fill="#007E9A" width="27.1" height="17.6"/>
	
		<rect x="56.9" y="139.6" transform="matrix(0.999 4.549038e-02 -4.549038e-02 0.999 6.8236 -3.0521)" fill="#007E9A" width="27.1" height="17.6"/>
	
		<rect x="71.4" y="71.5" transform="matrix(0.999 4.549038e-02 -4.549038e-02 0.999 5.4046 -3.446)" opacity="0.3" fill="#FFFFFF" width="14.1" height="91.1"/>
</g>
<g>
	<g>
		<path fill="#F6921E" d="M97.5,159.3l7.9,8.4l66.3-62.2l-7.9-8.4l-8.2-8.8l-66.3,62.2L97.5,159.3z M105.1,154.7
			c-0.9,0.8-2.1,0.9-3.1,0.3c-0.1,0-0.2-0.1-0.2-0.1c-0.1-0.1-0.2-0.2-0.4-0.3c-1-1.1-0.9-2.7,0.1-3.7c1-1,2.7-0.9,3.7,0.1
			c0.1,0.1,0.2,0.3,0.3,0.4c0,0.1,0.1,0.2,0.1,0.2C106.2,152.6,106,153.9,105.1,154.7z"/>
	</g>
	<g opacity="0.4">
		<path fill="#FFFFFF" d="M97.8,159l7.8,8.3l64.7-60.7l-1.5-1.6l-6.3-6.7l-7.3-7.8l-0.6-0.7l-64.7,60.7L97.8,159z M105.1,154.7
			c-0.9,0.8-2.1,0.9-3.1,0.3c-0.1,0-0.2-0.1-0.2-0.1c-0.1-0.1-0.2-0.2-0.4-0.3c-1-1.1-0.9-2.7,0.1-3.7c1-1,2.7-0.9,3.7,0.1
			c0.1,0.1,0.2,0.3,0.3,0.4c0,0.1,0.1,0.2,0.1,0.2C106.2,152.6,106,153.9,105.1,154.7z"/>
	</g>
	<g>
		<g>
			<g>
				<g>
					<path fill="#F6921E" d="M100.1,155.9c0.1,0.1,0.2,0.2,0.3,0.3c0.1,0.1,0.1,0.1,0.2,0.2c1.7,1.3,4.2,1.2,5.8-0.3
						c1.6-1.5,1.9-4,0.7-5.8c0-0.1-0.1-0.1-0.1-0.2c-0.1-0.1-0.2-0.2-0.3-0.4c-1.7-1.8-4.5-1.9-6.4-0.2
						C98.5,151.2,98.4,154,100.1,155.9z M101.6,150.9c1-1,2.7-0.9,3.7,0.1c0.1,0.1,0.2,0.3,0.3,0.4c0,0.1,0.1,0.2,0.1,0.2
						c0.5,1,0.3,2.3-0.5,3.1c-0.9,0.8-2.1,0.9-3.1,0.3c-0.1,0-0.2-0.1-0.2-0.1c-0.1-0.1-0.2-0.2-0.4-0.3
						C100.5,153.5,100.5,151.9,101.6,150.9z"/>
				</g>
			</g>
		</g>
		<g>
			<g>
				<g>
					<path fill="#F6921E" d="M96.7,160.1l8.8,9.3l67.8-63.6l-18.5-19.7l0,0l-67.7,63.5L96.7,160.1z M168.8,105l-0.5,0.4l-1.6-1.8
						l-0.7,0.6l1.6,1.8l-2.1,1.9l-1.6-1.7l-0.7,0.6l1.6,1.7l-2.1,2l-1.6-1.8l-0.7,0.6l1.6,1.8l-2.1,1.9l-1.6-1.7l-0.7,0.6l1.6,1.7
						l-2.1,2l-1.6-1.8l-0.7,0.6l1.6,1.8L156,117l-4.8-5.1l-2.6,2.5l4.8,5.1l-0.7,0.7l-1.6-1.7l-0.7,0.6l1.6,1.7l-2.1,1.9l-1.6-1.8
						l-0.7,0.6l1.6,1.8l-2.1,2l-1.6-1.7l-0.7,0.6l1.6,1.7l-2.1,1.9l-1.6-1.8l-0.7,0.6l1.6,1.8l-2.1,1.9l-1.6-1.8l-0.7,0.6l1.6,1.8
						l-0.9,0.8l-4.8-5.1l-2.6,2.5l4.8,5.1l-0.9,0.9l-1.6-1.7l-0.7,0.6l1.6,1.7l-2.1,1.9l-1.6-1.8l-0.7,0.6l1.6,1.8l-2.1,1.9
						l-1.6-1.7l-0.7,0.6l1.6,1.7l-2.1,2l-1.6-1.8l-0.7,0.6l1.6,1.8l-2.1,1.9l-1.6-1.7l-0.7,0.6l1.6,1.7l-0.7,0.6l-4.8-5.1l-2.6,2.5
						l4.8,5.1l-1.9,1.8l-1.6-1.8l-0.7,0.6l1.6,1.8l-2.1,1.9l-1.6-1.7l-0.7,0.6l1.6,1.7l-2.1,2l-1.6-1.8L112,155l1.6,1.8l-2.1,1.9
						l-1.6-1.7l-0.7,0.6l1.6,1.7l-2.1,1.9l-1.6-1.8l-0.7,0.6l1.6,1.7l-2.6,2.4l-6.3-6.7l-7.3-7.8l63.2-59.3l0.7-0.6l7.3,7.8l6.3,6.7
						L168.8,105z"/>
				</g>
			</g>
		</g>
	</g>
	<g opacity="0.2">
		<path fill="#FFFFFF" d="M86.9,149.7l67.7-63.5l9.8,10.4l-0.6,0.5l-0.7,0.6l-0.7,0.6l-55.4,52l-1.4,1.3c0-0.1-0.1-0.2-0.1-0.2
			c-0.1-0.1-0.2-0.3-0.3-0.4c-1-1.1-2.6-1.1-3.7-0.1c-1.1,1-1.1,2.6-0.1,3.7c0.1,0.1,0.2,0.2,0.4,0.3c0.1,0.1,0.1,0.1,0.2,0.1
			l-1.4,1.3l-1.3,1.2l-1.5,1.4l-0.3,0.3l-0.8,0.8L86.9,149.7z"/>
	</g>
</g>
<g>
	<g>
		
			<rect x="104.7" y="76.5" transform="matrix(0.8541 0.5202 -0.5202 0.8541 79.5171 -38.1314)" fill="#009245" width="6" height="92.2"/>
	</g>
	<g opacity="0.2">
		
			<rect x="104.7" y="76.5" transform="matrix(0.8541 0.5202 -0.5202 0.8541 79.5171 -38.1314)" fill="#39B54A" width="6" height="92.2"/>
	</g>
	<g>
		<g>
			<g>
				<path fill="#8CC63F" d="M134.7,84.9l0.6-1.8l0.1,0l4.1-12.4l-6.5,6.6l-0.9,0.9l-1.7,1.8l-1.4,1.4l-5.1,5.4l-45.4,74.5l8.3,5
					l45.4-74.5L134.7,84.9z M87,161.8l-4.4-2.7l38.8-63.7c0.5,0.8,1.1,1.4,1.8,1.9c0.7,0.4,1.6,0.7,2.5,0.8L87,161.8z M129.2,92.5
					c-1,0.2-2,0.1-2.8-0.4c-0.8-0.5-1.3-1.3-1.6-2.3l0.7-1.1l4.9-5.2l0.1-0.1c0.2,0.3,0.5,0.5,0.8,0.7c0.3,0.2,0.6,0.3,1,0.3
					l-0.1,0.2l-2.3,6.7L129.2,92.5z"/>
			</g>
			<g>
				<polygon fill="#8CC63F" points="132.1,78.2 130.4,80 130.4,80 				"/>
			</g>
		</g>
	</g>
	<g>
		<g>
			<g>
				<g>
					<path fill="#424143" d="M133,77.3l-0.9,0.9L133,77.3L133,77.3z"/>
				</g>
			</g>
		</g>
	</g>
	<g>
		<path fill="#404041" d="M134.7,84.9c-0.9,0.1-1.7,0-2.4-0.3c-0.3-0.1-0.7-0.3-1-0.5l0,0c-0.3-0.2-0.6-0.4-0.8-0.6
			c-0.6-0.5-1.1-1.2-1.4-2l1.4-1.4l0,0l1.7-1.8l0.9-0.9l6.5-6.6l-4.1,12.4l-0.1,0L134.7,84.9z"/>
	</g>
	<g>
		
			<rect x="102.8" y="89.3" transform="matrix(0.8541 0.5202 -0.5202 0.8541 82.1085 -35.4824)" fill="#8CC63F" width="3" height="78.5"/>
	</g>
	<g opacity="0.2">
		<polygon fill="#FFFFFF" points="132.2,91.9 86.9,166.4 82.7,163.9 139.5,70.7 135.4,83.1 135.3,83.1 134.7,84.9 		"/>
	</g>
</g>
<path fill="#F2F2F2" stroke="#CCCCCC" stroke-width="3" stroke-miterlimit="10" d="M130.5,150.8l-8.3-24.2c-0.5-1.5,0.3-3.2,1.8-3.7
	l8-2.8c1.5-0.5,3.2,0.3,3.7,1.8l8.3,24.2c0.5,1.5-0.3,3.2-1.8,3.7l-8,2.8C132.7,153.1,131,152.3,130.5,150.8z"/>
</svg>
