<?xml version="1.0" encoding="utf-8"?>
<!-- Generator: Adobe Illustrator 18.1.0, SVG Export Plug-In . SVG Version: 6.00 Build 0)  -->
<!DOCTYPE svg PUBLIC "-//W3C//DTD SVG 1.1//EN" "http://www.w3.org/Graphics/SVG/1.1/DTD/svg11.dtd">
<svg version="1.1" id="Layer_1" xmlns="http://www.w3.org/2000/svg" xmlns:xlink="http://www.w3.org/1999/xlink" x="0px" y="0px"
	 viewBox="0 0 216 216" enable-background="new 0 0 216 216" xml:space="preserve">
<circle fill="#333333" cx="107.6" cy="108.6" r="88.2"/>
<rect x="24.3" y="63.3" fill="#007E9A" width="164.7" height="103.3"/>
<path fill="#FFFFFF" stroke="#E6E6E6" stroke-width="2" stroke-miterlimit="10" d="M109,159.3H29.7V60.5h69.1
	c5.7,0,10.3,4.6,10.3,10.3V159.3z"/>
<path fill="#FFFFFF" stroke="#E6E6E6" stroke-width="2" stroke-miterlimit="10" d="M109.4,159.3h79.3V60.5h-69.1
	c-5.7,0-10.3,4.6-10.3,10.3V159.3z"/>
<line fill="none" stroke="#E6E6E6" stroke-width="4" stroke-miterlimit="10" x1="50" y1="105" x2="85" y2="105"/>
<line fill="none" stroke="#E6E6E6" stroke-miterlimit="10" x1="37" y1="118.5" x2="99" y2="118.5"/>
<line fill="none" stroke="#E6E6E6" stroke-miterlimit="10" x1="37" y1="124.5" x2="99" y2="124.5"/>
<line fill="none" stroke="#E6E6E6" stroke-miterlimit="10" x1="37" y1="130.5" x2="99" y2="130.5"/>
<line fill="none" stroke="#E6E6E6" stroke-miterlimit="10" x1="37" y1="136.5" x2="99" y2="136.5"/>
<line fill="none" stroke="#E6E6E6" stroke-miterlimit="10" x1="37" y1="142.5" x2="99" y2="142.5"/>
<line fill="none" stroke="#E6E6E6" stroke-miterlimit="10" x1="119" y1="84.5" x2="181" y2="84.5"/>
<line fill="none" stroke="#E6E6E6" stroke-miterlimit="10" x1="119" y1="90.5" x2="181" y2="90.5"/>
<line fill="none" stroke="#E6E6E6" stroke-miterlimit="10" x1="119" y1="96.5" x2="181" y2="96.5"/>
<line fill="none" stroke="#E6E6E6" stroke-miterlimit="10" x1="119" y1="101.5" x2="181" y2="101.5"/>
<line fill="none" stroke="#E6E6E6" stroke-miterlimit="10" x1="119" y1="107.5" x2="181" y2="107.5"/>
<line fill="none" stroke="#E6E6E6" stroke-miterlimit="10" x1="119" y1="113.5" x2="181" y2="113.5"/>
<line fill="none" stroke="#E6E6E6" stroke-miterlimit="10" x1="119" y1="119.5" x2="181" y2="119.5"/>
<line fill="none" stroke="#E6E6E6" stroke-miterlimit="10" x1="119" y1="125.5" x2="181" y2="125.5"/>
<line fill="none" stroke="#E6E6E6" stroke-miterlimit="10" x1="119" y1="130.5" x2="181" y2="130.5"/>
<line fill="none" stroke="#E6E6E6" stroke-miterlimit="10" x1="119" y1="136.5" x2="181" y2="136.5"/>
<line fill="none" stroke="#E6E6E6" stroke-miterlimit="10" x1="119" y1="142.5" x2="181" y2="142.5"/>
<polygon fill="#A2D5B1" points="142.7,181.3 133,169.7 124,181.3 124,59.7 142.7,59.7 "/>
<g>
	<path fill="#FF1D25" d="M57.3,75.8c0.6-0.6,1.4-1.1,2.2-1.4c0.8-0.3,1.7-0.5,2.5-0.4c0.2,0,0.4,0,0.6,0.1c1.3,0.2,2.3,0.6,3.2,1.2
		c0.7,0.5,1.2,1.2,1.5,2c0.4-0.8,0.9-1.5,1.6-2c0.8-0.7,1.9-1.1,3.1-1.2c0.9-0.1,1.8,0,2.6,0.2c0.9,0.2,1.6,0.6,2.3,1.2
		c0.7,0.6,1.3,1.3,1.7,2.1c0.5,0.9,0.7,1.8,0.8,2.8c0.2,2.3-0.6,4.7-2.4,7.2c-2.1,2.9-5.3,5.7-9.8,8.4c0,0,0,0-0.1,0c0,0,0,0-0.1,0
		c-4.3-2.6-7.5-5.3-9.6-8.2c-1.8-2.4-2.6-4.8-2.5-7.1c0-1,0.3-1.9,0.7-2.8C56.1,77.1,56.6,76.4,57.3,75.8z"/>
</g>
<g opacity="0.4">
	<path fill="#FFFFFF" d="M65.6,75.2c-0.9-0.7-1.9-1.1-3.1-1.2c-0.2,0-0.4-0.1-0.6-0.1c-0.9,0-1.7,0.1-2.5,0.4
		c-0.8,0.3-1.5,0.8-2.2,1.4c-0.7,0.6-1.2,1.3-1.5,2.1c-0.4,0.9-0.6,1.8-0.7,2.8c-0.1,2.3,0.8,4.6,2.5,7.1c2.1,2.9,5.2,5.6,9.5,8.2
		c0,0-0.1,0-0.1,0V77.2C66,76.4,66.2,75.7,65.6,75.2z"/>
</g>
</svg>
