<?xml version="1.0" encoding="utf-8"?>
<!-- Generator: Adobe Illustrator 18.1.0, SVG Export Plug-In . SVG Version: 6.00 Build 0)  -->
<!DOCTYPE svg PUBLIC "-//W3C//DTD SVG 1.1//EN" "http://www.w3.org/Graphics/SVG/1.1/DTD/svg11.dtd">
<svg version="1.1" id="Layer_1" xmlns="http://www.w3.org/2000/svg" xmlns:xlink="http://www.w3.org/1999/xlink" x="0px" y="0px"
	 viewBox="0 0 288 288" enable-background="new 0 0 288 288" xml:space="preserve">
<g>
	<path fill="#FFFFFF" d="M21.5,270.3c0,2.1-0.8,3.8-2.3,5c-1.6,1.2-3.6,1.9-6.2,1.9c-3.1,0-5.5-0.3-7.1-1v-1.8
		c1.8,0.8,4.2,1.2,7,1.2c2.1,0,3.7-0.5,5-1.4c1.2-1,1.8-2.2,1.8-3.8c0-1-0.2-1.8-0.6-2.4c-0.4-0.6-1.1-1.2-2-1.7
		c-0.9-0.5-2.3-1.1-4-1.7c-2.6-0.9-4.4-1.9-5.4-2.9c-1-1-1.5-2.4-1.5-4.1c0-1.9,0.7-3.4,2.2-4.6c1.5-1.2,3.4-1.8,5.7-1.8
		c2.4,0,4.6,0.5,6.7,1.4l-0.6,1.5c-2.1-0.9-4.1-1.3-6-1.3c-1.9,0-3.4,0.4-4.5,1.3c-1.1,0.9-1.7,2-1.7,3.5c0,0.9,0.2,1.7,0.5,2.3
		c0.3,0.6,0.9,1.1,1.7,1.6c0.8,0.5,2.1,1.1,4,1.7c2,0.7,3.5,1.3,4.5,2c1,0.6,1.7,1.4,2.2,2.2C21.3,268.2,21.5,269.1,21.5,270.3z"/>
	<path fill="#FFFFFF" d="M37,252.7c-3.2,0-5.7,1-7.5,3.1c-1.8,2-2.7,4.8-2.7,8.4c0,3.6,0.9,6.4,2.6,8.4c1.7,2,4.2,3,7.4,3
		c2.1,0,4.1-0.3,5.9-0.8v1.6c-1.7,0.6-3.8,0.9-6.3,0.9c-3.6,0-6.4-1.2-8.4-3.5c-2-2.3-3.1-5.5-3.1-9.7c0-2.6,0.5-4.9,1.5-6.8
		c1-2,2.4-3.5,4.2-4.6c1.8-1.1,4-1.6,6.4-1.6c2.5,0,4.7,0.5,6.7,1.4l-0.7,1.6C41,253.2,39.1,252.7,37,252.7z"/>
	<path fill="#FFFFFF" d="M49.3,265.8v11.1h-1.8v-25.4h6c3.1,0,5.5,0.6,7,1.7c1.5,1.2,2.3,2.9,2.3,5.3c0,1.7-0.4,3.1-1.3,4.3
		c-0.9,1.2-2.3,2-4.1,2.5l6.9,11.6h-2.1l-6.5-11.1H49.3z M49.3,264.3h4.8c2.1,0,3.8-0.5,5-1.4c1.2-1,1.8-2.4,1.8-4.2
		c0-1.9-0.6-3.3-1.7-4.2c-1.2-0.9-3-1.3-5.7-1.3h-4.2V264.3z"/>
	<path fill="#FFFFFF" d="M89.3,264.1c0,4-1,7.2-3,9.6c-2,2.3-4.8,3.5-8.3,3.5c-3.5,0-6.3-1.2-8.3-3.5c-2-2.3-3-5.5-3-9.6
		c0-4,1-7.2,3-9.5c2-2.3,4.8-3.5,8.3-3.5c3.5,0,6.3,1.2,8.3,3.5C88.3,256.9,89.3,260.1,89.3,264.1z M68.6,264.1
		c0,3.6,0.8,6.4,2.4,8.4c1.6,2,3.9,3,7,3c3.1,0,5.4-1,7-3c1.6-2,2.4-4.8,2.4-8.5c0-3.7-0.8-6.5-2.4-8.4c-1.6-1.9-3.9-2.9-7-2.9
		c-3,0-5.4,1-7,3C69.4,257.7,68.6,260.5,68.6,264.1z"/>
	<path fill="#FFFFFF" d="M94.5,276.8v-25.4h1.8v23.7h12.1v1.7H94.5z"/>
	<path fill="#FFFFFF" d="M112,276.8v-25.4h1.8v23.7h12.1v1.7H112z"/>
	<path fill="#FFFFFF" d="M157.3,263.9c0,4.3-1.1,7.5-3.4,9.7c-2.2,2.2-5.5,3.3-9.8,3.3h-6.1v-25.4h6.9c4.1,0,7.1,1.1,9.2,3.2
		C156.3,256.8,157.3,259.8,157.3,263.9z M155.4,264c0-3.6-0.9-6.4-2.8-8.2c-1.8-1.8-4.6-2.8-8.1-2.8h-4.7v22.3h4.2
		C151.6,275.3,155.4,271.5,155.4,264z"/>
	<path fill="#FFFFFF" d="M183.8,264.1c0,4-1,7.2-3,9.6c-2,2.3-4.8,3.5-8.3,3.5c-3.5,0-6.3-1.2-8.3-3.5c-2-2.3-3-5.5-3-9.6
		c0-4,1-7.2,3-9.5c2-2.3,4.8-3.5,8.3-3.5c3.5,0,6.3,1.2,8.3,3.5C182.8,256.9,183.8,260.1,183.8,264.1z M163,264.1
		c0,3.6,0.8,6.4,2.4,8.4c1.6,2,3.9,3,7,3c3.1,0,5.4-1,7-3c1.6-2,2.4-4.8,2.4-8.5c0-3.7-0.8-6.5-2.4-8.4c-1.6-1.9-3.9-2.9-7-2.9
		c-3,0-5.4,1-7,3C163.9,257.7,163,260.5,163,264.1z"/>
	<path fill="#FFFFFF" d="M209.2,276.8h-1.5l-5.6-19.6c-0.5-1.6-0.8-2.9-1-4c-0.2,1-0.4,2.2-0.8,3.5c-0.3,1.3-2.2,8-5.6,20.1h-1.5
		l-7-25.4h1.9l4.4,16.4c0.2,0.7,0.3,1.3,0.5,1.8c0.2,0.6,0.3,1.1,0.4,1.6c0.1,0.5,0.2,1,0.3,1.4c0.1,0.5,0.2,0.9,0.3,1.4
		c0.3-1.6,0.9-4,1.8-7.2l4.3-15.4h2l5.1,17.7c0.6,2,1,3.7,1.3,4.9c0.2-0.8,0.3-1.7,0.6-2.7c0.2-0.9,2-7.6,5.4-20h1.8L209.2,276.8z"
		/>
	<path fill="#FFFFFF" d="M238.4,276.8h-1.8l-15-22.5h-0.1c0.1,2.7,0.2,4.7,0.2,6.1v16.5h-1.7v-25.4h1.8l15,22.5h0.1
		c-0.1-2.1-0.2-4.1-0.2-5.9v-16.6h1.7V276.8z"/>
</g>
<g>
	<g>
		<path fill="#FFFFFF" d="M122.4,221.5c-30.8,0-55.8-25.1-55.8-55.9l0-82.5c0.6-30.3,25.4-54.8,55.8-54.8
			c30.8,0,55.8,25.1,55.8,55.8c0,0.2,0,0.5,0,0.7l0,0.7v80C178.3,196.4,153.2,221.5,122.4,221.5z M71.6,88.1v77.5
			c0,28,22.8,50.9,50.8,50.9c28,0,50.8-22.8,50.8-50.9V88.1h-0.1l0-2.6c0-0.5,0-0.9,0-1.4c0-28-22.8-50.8-50.8-50.8
			c-28,0-50.8,22.8-50.8,50.8c0,0.5,0,0.9,0,1.4L71.6,88.1L71.6,88.1z"/>
	</g>
	<g>
		<circle fill="#FFFFFF" cx="122.4" cy="69.8" r="10.8"/>
	</g>
</g>
</svg>
