<?xml version="1.0" encoding="utf-8"?>
<!-- Generator: Adobe Illustrator 18.1.0, SVG Export Plug-In . SVG Version: 6.00 Build 0)  -->
<!DOCTYPE svg PUBLIC "-//W3C//DTD SVG 1.1//EN" "http://www.w3.org/Graphics/SVG/1.1/DTD/svg11.dtd">
<svg version="1.1" id="Layer_1" xmlns="http://www.w3.org/2000/svg" xmlns:xlink="http://www.w3.org/1999/xlink" x="0px" y="0px"
	 viewBox="0 0 216 216" enable-background="new 0 0 216 216" xml:space="preserve">
<g>
	
		<rect x="22.5" y="124.5" transform="matrix(-1.676831e-02 -0.9999 0.9999 -1.676831e-02 -113.2907 198.5933)" fill="#FFFFFF" stroke="#E6E6E6" stroke-miterlimit="10" width="37" height="61"/>
	
		<rect x="13.2" y="141.8" transform="matrix(-0.9999 1.676830e-02 -1.676830e-02 -0.9999 83.3732 307.3412)" fill="#CCCCCC" stroke="#FFFFFF" stroke-miterlimit="10" width="54.4" height="24.5"/>
	<circle fill="#F2F2F2" stroke="#FFFFFF" stroke-miterlimit="10" cx="29.9" cy="148.3" r="9.5"/>
	<circle fill="#F2F2F2" stroke="#FFFFFF" stroke-miterlimit="10" cx="51.7" cy="151.6" r="7.7"/>
	<path fill="#F2F2F2" stroke="#FFFFFF" stroke-miterlimit="10" d="M40.7,167.3l0.1,4.3l-22,0.4l-0.1-4.3c-0.1-4.8,3.9-8.8,8.7-8.9
		l4.4-0.1C36.6,158.6,40.6,162.4,40.7,167.3z"/>
	<path fill="#F2F2F2" stroke="#FFFFFF" stroke-miterlimit="10" d="M61.7,169.2l0,2l-20,0.3l0-2c-0.1-4.8,4-9.1,8.8-9.2l2.5,0
		C57.9,160.2,61.7,164.4,61.7,169.2z"/>
	<path fill="none" stroke="#FFFFFF" stroke-linecap="round" stroke-linejoin="round" stroke-miterlimit="10" d="M25.3,152.6
		c0,0,4.4,3.8,9-0.2"/>
	<path fill="none" stroke="#FFFFFF" stroke-linecap="round" stroke-linejoin="round" stroke-miterlimit="10" d="M48.2,155.2
		c0,0,3.3,2.9,6.7-0.1"/>
</g>
<path fill="#CCCCCC" d="M202,14.4v87.4c0,2.3-1.8,4.2-4.1,4.2H72.3c-1,0-1.5-0.4-2.3-1c-0.9-0.8-1.1-1.9-1.1-3.2V14.4
	c0-2.3,1.1-4.4,3.3-4.4h125.5c1.1,0,2,0.6,2.8,1.2C201.5,12,202,13.2,202,14.4z"/>
<g>
	<path fill="#F2F2F2" d="M141.8,55c-1.3,0.9-1.9,2-1.9,3.2c0,1.5,0.8,2.6,2.3,3.4c-0.4,1.2-1,2.3-1.8,3.1c-0.8,0.9-1.5,1.3-2.2,1.3
		c-0.3,0-0.7-0.1-1.3-0.3l-0.3-0.1c-0.5-0.2-1-0.3-1.4-0.3c-0.4,0-0.8,0.1-1.2,0.2l-0.3,0.1l-0.4,0.2c-0.3,0.1-0.6,0.2-1,0.2
		c-0.8,0-1.6-0.6-2.5-1.9c-1.3-1.8-2-3.8-2-5.9c0-1.5,0.4-2.7,1.2-3.6c0.8-0.9,1.9-1.4,3.3-1.4c0.5,0,1,0.1,1.4,0.3l0.3,0.1l0.3,0.1
		c0.3,0.1,0.5,0.2,0.7,0.2c0.2,0,0.5-0.1,0.7-0.2l0.4-0.2l0.3-0.1c0.5-0.2,1-0.3,1.7-0.3C139.8,53.3,141,53.9,141.8,55z M138.4,49.5
		c0,0.2,0,0.3,0,0.4c0,0.9-0.3,1.8-1,2.5c-0.7,0.7-1.5,1.1-2.4,1.1c0-0.2,0-0.4,0-0.5c0-0.8,0.3-1.6,1-2.3c0.6-0.7,1.4-1.1,2.2-1.2
		C138.2,49.6,138.3,49.6,138.4,49.5z"/>
</g>
<path opacity="0.2" fill="#FFFFFF" d="M200.6,11.2L70.1,104.9c-0.9-0.8-1.1-1.8-1.1-3.1V14.4c0-2.3,1.1-4.4,3.3-4.4h125.5
	C198.9,10,199.9,10.6,200.6,11.2z"/>
<g>
	<path fill="#B3B3B3" d="M9,54.2v-3.6c0-2,1.1-3.6,3.1-3.6H23v11H12.1C10.1,58,9,56.2,9,54.2z"/>
	<path opacity="0.2" fill="#FFFFFF" d="M9,54.2V53h14v5H12.1C10.1,58,9,56.2,9,54.2z"/>
	<circle fill="#E6E6E6" stroke="#B3B3B3" stroke-width="2" stroke-miterlimit="10" cx="39.9" cy="52.4" r="18.4"/>
	<path fill="#603813" d="M25.7,52.7c0-8,6.5-14.5,14.5-14.5c3.3,0,6.3,1.1,8.7,2.9c3.5,2.7,5.8,6.9,5.8,11.6c0,8-6.5,14.5-14.5,14.5
		c-4.7,0-8.9-2.3-11.6-5.7C26.8,59,25.7,56,25.7,52.7z"/>
	<path opacity="0.2" fill="#FFFFFF" d="M25.7,52.7c0-8,6.5-14.5,14.5-14.5c3.3,0,6.3,1.1,8.7,2.9c1.9,2.4,3,5.5,3,8.8
		c0,8-6.5,14.5-14.5,14.5c-3.3,0-6.3-1.1-8.8-2.9C26.8,59,25.7,56,25.7,52.7z"/>
</g>
<g>
	<g>
		<g>
			<path fill="#CCCCCC" d="M38,77.9v52.4c0,1.2-1,1.7-2.2,1.7H11.7c-1.1,0-1.7-0.6-1.7-1.7V77.9c0-1.1,0.6-1.9,1.7-1.9h24.1
				C37,76,38,76.7,38,77.9z"/>
			<rect x="12.2" y="79.1" fill="#333333" width="23.3" height="44.5"/>
			<circle opacity="0.4" fill="#FFFFFF" cx="23.8" cy="127.3" r="2.2"/>
		</g>
	</g>
	<path opacity="0.2" fill="#FFFFFF" d="M38,77.9v4.4L35.5,84l-23.1,16.7l-2.3,1.8V77.9c0-1.1,0.6-1.9,1.7-1.9h24.1
		C37,76,38,76.7,38,77.9z"/>
</g>
<path fill="#FFFFFF" stroke="#F2F2F2" stroke-width="2" stroke-miterlimit="10" d="M26.5,32h-13C11,32,9,30,9,27.5v-13
	C9,12,11,10,13.5,10h13c2.5,0,4.5,2,4.5,4.5v13C31,30,29,32,26.5,32z"/>
<polyline fill="#FFFFFF" stroke="#F2F2F2" stroke-miterlimit="10" points="16.5,11 16.5,17.5 10,17.5 "/>
<line fill="#FFFFFF" stroke="#F2F2F2" stroke-miterlimit="10" x1="31" y1="20.5" x2="63" y2="20.5"/>
<rect x="62.8" y="19.1" fill="#FFFFFF" stroke="#F2F2F2" stroke-miterlimit="10" width="4.4" height="2.7"/>
<rect x="66.2" y="17.3" fill="#FFFFFF" stroke="#F2F2F2" stroke-miterlimit="10" width="2.3" height="6.2"/>
<circle fill="#00FF00" cx="67.3" cy="20.4" r="0.4"/>
<g>
	<path fill="#333333" d="M200.3,168.4h-9c-3.9,0-7-3.1-7-7v-18.9c0-6.4,5.1-11.5,11.5-11.5h0c6.4,0,11.5,5.1,11.5,11.5v18.9
		C207.3,165.2,204.2,168.4,200.3,168.4z"/>
	<circle fill="none" stroke="#FFFFFF" stroke-width="0.5" stroke-miterlimit="10" cx="195.8" cy="162.8" r="2.2"/>
	<circle fill="none" stroke="#FFFFFF" stroke-width="0.5" stroke-miterlimit="10" cx="195.8" cy="163" r="0.8"/>
	<circle fill="#FFFFFF" cx="192.6" cy="160.9" r="0.6"/>
	<path fill="#FFFFFF" d="M195.8,138.6L195.8,138.6c-0.7,0-1.3-0.6-1.3-1.3v-3.1c0-0.7,0.6-1.3,1.3-1.3l0,0c0.7,0,1.3,0.6,1.3,1.3
		v3.1C197.1,138,196.6,138.6,195.8,138.6z"/>
</g>
<g>
	<path fill="#FFFFFF" stroke="#F2F2F2" stroke-miterlimit="10" d="M45.2,98.5l0.9-3.2c0.7-2.4,0.7-4.9,0-7.2l-0.9-3.2
		c0-4,3.3-7.3,7.3-7.3h0.7c4,0,7.3,3.3,7.3,7.3l-0.7,2.9c-0.7,2.8-0.6,5.7,0.1,8.4l0.6,2.3c0,4-3.3,7.3-7.3,7.3h-0.7
		C48.4,105.8,45.2,102.6,45.2,98.5z"/>
	<circle fill="#FFFFFF" stroke="#F2F2F2" stroke-miterlimit="10" cx="52.8" cy="85.2" r="5.7"/>
	<circle opacity="0.6" fill="#29ABE2" stroke="#0071BC" stroke-miterlimit="10" cx="52.8" cy="98.2" r="5.7"/>
</g>
<path fill="#333333" d="M206.3,22.9H202V19h4.3c1.1,0,1.9,0.9,1.9,1.9v0C208.2,22,207.3,22.9,206.3,22.9z"/>
<path fill="none" stroke="#333333" stroke-miterlimit="10" d="M207,21.5L207,21.5c1.9,0,3.5,1.6,3.5,3.5v90c0,1.9-1.6,3.5-3.5,3.5
	h-8c-1.9,0-3.5,1.6-3.5,3.5v9"/>
<g>
	<rect x="81.1" y="114" fill="#333333" width="87.9" height="68.5"/>
	<path fill="#FFFFFF" stroke="#F2F2F2" stroke-miterlimit="10" d="M127.5,178.5h-43V111h33.9c5,0,9.1,4.1,9.1,9.1V178.5z"/>
	<path fill="#FFFFFF" stroke="#F2F2F2" stroke-miterlimit="10" d="M127.5,178.5h43V111h-33.9c-5,0-9.1,4.1-9.1,9.1V178.5z"/>
	<line fill="#FFFFFF" stroke="#F2F2F2" stroke-width="3" stroke-miterlimit="10" x1="90" y1="126.5" x2="113" y2="126.5"/>
	<line fill="#FFFFFF" stroke="#F2F2F2" stroke-miterlimit="10" x1="90" y1="141.5" x2="120" y2="141.5"/>
	<line fill="#FFFFFF" stroke="#F2F2F2" stroke-miterlimit="10" x1="90" y1="136.5" x2="120" y2="136.5"/>
	<line fill="#FFFFFF" stroke="#F2F2F2" stroke-miterlimit="10" x1="133" y1="139.5" x2="166" y2="139.5"/>
	<line fill="#FFFFFF" stroke="#F2F2F2" stroke-miterlimit="10" x1="133" y1="144.5" x2="166" y2="144.5"/>
	<g>
		<rect x="133.5" y="150" fill="#FFFFFF" stroke="#F2F2F2" stroke-miterlimit="10" width="32.5" height="24.5"/>
		<line fill="#FFFFFF" stroke="#F2F2F2" stroke-miterlimit="10" x1="133.5" y1="150" x2="166" y2="174.5"/>
		<line fill="#FFFFFF" stroke="#F2F2F2" stroke-miterlimit="10" x1="166" y1="150" x2="133.5" y2="174.5"/>
	</g>
	<g>
		<rect x="133.5" y="124" fill="#FFFFFF" stroke="#F2F2F2" stroke-miterlimit="10" width="9.5" height="9.5"/>
		<line fill="#FFFFFF" stroke="#F2F2F2" stroke-miterlimit="10" x1="133.5" y1="124" x2="143" y2="133.5"/>
		<line fill="#FFFFFF" stroke="#F2F2F2" stroke-miterlimit="10" x1="143" y1="124" x2="133.5" y2="133.5"/>
	</g>
	<g>
		<rect x="144.5" y="124" fill="#FFFFFF" stroke="#F2F2F2" stroke-miterlimit="10" width="9.5" height="9.5"/>
		<line fill="#FFFFFF" stroke="#F2F2F2" stroke-miterlimit="10" x1="144.5" y1="124" x2="154" y2="133.5"/>
		<line fill="#FFFFFF" stroke="#F2F2F2" stroke-miterlimit="10" x1="154" y1="124" x2="144.5" y2="133.5"/>
	</g>
	<g>
		<rect x="155.5" y="124" fill="#FFFFFF" stroke="#F2F2F2" stroke-miterlimit="10" width="9.5" height="9.5"/>
		<line fill="#FFFFFF" stroke="#F2F2F2" stroke-miterlimit="10" x1="155.5" y1="124" x2="165" y2="133.5"/>
		<line fill="#FFFFFF" stroke="#F2F2F2" stroke-miterlimit="10" x1="165" y1="124" x2="155.5" y2="133.5"/>
	</g>
	<line fill="#FFFFFF" stroke="#F2F2F2" stroke-miterlimit="10" x1="90" y1="145.5" x2="120" y2="145.5"/>
	<line fill="#FFFFFF" stroke="#F2F2F2" stroke-miterlimit="10" x1="90" y1="150.5" x2="120" y2="150.5"/>
	<ellipse fill="none" stroke="#F2F2F2" stroke-miterlimit="10" cx="127.8" cy="122.5" rx="3" ry="1.8"/>
	<ellipse fill="none" stroke="#F2F2F2" stroke-miterlimit="10" cx="127.8" cy="127.5" rx="3" ry="1.8"/>
	<ellipse fill="none" stroke="#F2F2F2" stroke-miterlimit="10" cx="127.8" cy="132.5" rx="3" ry="1.8"/>
	<ellipse fill="none" stroke="#F2F2F2" stroke-miterlimit="10" cx="127.8" cy="138" rx="3" ry="1.8"/>
	<ellipse fill="none" stroke="#F2F2F2" stroke-miterlimit="10" cx="127.8" cy="143.5" rx="3" ry="1.8"/>
	<ellipse fill="none" stroke="#F2F2F2" stroke-miterlimit="10" cx="127.8" cy="148.5" rx="3" ry="1.8"/>
	<ellipse fill="none" stroke="#F2F2F2" stroke-miterlimit="10" cx="127.8" cy="153.5" rx="3" ry="1.8"/>
	<ellipse fill="none" stroke="#F2F2F2" stroke-miterlimit="10" cx="127.8" cy="158.5" rx="3" ry="1.8"/>
	<ellipse fill="none" stroke="#F2F2F2" stroke-miterlimit="10" cx="127.8" cy="164" rx="3" ry="1.8"/>
	<ellipse fill="none" stroke="#F2F2F2" stroke-miterlimit="10" cx="127.8" cy="169.5" rx="3" ry="1.8"/>
	<ellipse fill="none" stroke="#F2F2F2" stroke-miterlimit="10" cx="127.8" cy="174.5" rx="3" ry="1.8"/>
	<g>
		<rect x="90.5" y="155" fill="#FFFFFF" stroke="#F2F2F2" stroke-miterlimit="10" width="30" height="19.5"/>
		<line fill="#FFFFFF" stroke="#F2F2F2" stroke-miterlimit="10" x1="90.5" y1="155" x2="120.5" y2="174.5"/>
		<line fill="#FFFFFF" stroke="#F2F2F2" stroke-miterlimit="10" x1="120.5" y1="155" x2="90.5" y2="174.5"/>
	</g>
</g>
<g>
	<path fill="#FFFFFF" stroke="#F2F2F2" stroke-miterlimit="10" d="M106.9,178.3c2.5-0.6,3.5-2,2.9-4.6l-3.6-14.3
		c-0.6-2.6-2.5-4.6-5-4l-87.1,22c-2.5,0.6-4.6,3.7-4,6.2l3.6,14.3c0.6,2.6,3.6,3,6.1,2.3L106.9,178.3z M18,196
		c-0.4-1.6,0.5-3.2,2.1-3.6c1.5-0.4,3.1,0.6,3.5,2.2c0.4,1.6-0.5,3.2-2.1,3.6C20,198.6,18.4,197.6,18,196z"/>
	
		<rect x="83.5" y="161.2" transform="matrix(0.2444 0.9697 -0.9697 0.2444 236.1657 35.0473)" fill="#D94748" width="24.2" height="15.7"/>
	
		<rect x="63.7" y="166.2" transform="matrix(0.2444 0.9697 -0.9697 0.2444 226.058 57.9823)" opacity="0.8" fill="#D94748" width="24.2" height="15.7"/>
	
		<rect x="43.9" y="171.2" transform="matrix(0.2444 0.9697 -0.9697 0.2444 215.9503 80.9173)" opacity="0.6" fill="#D94748" width="24.2" height="15.7"/>
	
		<rect x="24.2" y="176.1" transform="matrix(0.2444 0.9697 -0.9697 0.2444 205.8426 103.8523)" opacity="0.4" fill="#D94748" width="24.2" height="15.7"/>
	
		<rect x="58.9" y="142" transform="matrix(0.2444 0.9697 -0.9697 0.2444 226.4279 74.8701)" opacity="0.3" fill="#FFFFFF" width="12.6" height="81.4"/>
</g>
<g>
	<path fill="#FFFFFF" stroke="#F2F2F2" stroke-miterlimit="10" d="M108.3,191.5c2.5-0.3,4.3-1.8,4.1-4.4l-1.5-14.7
		c-0.3-2.6-2.4-4.6-5-4.4l-89.4,8.8c-2.5,0.3-4.5,2.6-4.3,5.3l1.5,14.7c0.3,2.6,2.6,3.8,5.1,3.5L108.3,191.5z M17.7,195.6
		c-0.2-1.6,1-3.1,2.6-3.2c1.6-0.2,3,1,3.2,2.7c0.2,1.6-1,3.1-2.6,3.2C19.3,198.5,17.9,197.3,17.7,195.6z"/>
	
		<rect x="86.3" y="172.6" transform="matrix(9.830696e-02 0.9952 -0.9952 9.830696e-02 268.2643 64.7816)" fill="#432A40" width="24.2" height="15.7"/>
	
		<rect x="66" y="174.6" transform="matrix(9.830696e-02 0.9952 -0.9952 9.830696e-02 251.9644 86.7796)" fill="#432A40" width="24.2" height="15.7"/>
	
		<rect x="45.7" y="176.6" transform="matrix(9.830696e-02 0.9952 -0.9952 9.830696e-02 235.6644 108.7776)" fill="#432A40" width="24.2" height="15.7"/>
	
		<rect x="25.4" y="178.6" transform="matrix(9.830696e-02 0.9952 -0.9952 9.830696e-02 219.3645 130.7757)" fill="#432A40" width="24.2" height="15.7"/>
	
		<rect x="60" y="148.7" transform="matrix(9.830696e-02 0.9952 -0.9952 9.830696e-02 248.2858 104.8615)" opacity="0.3" fill="#FFFFFF" width="12.6" height="81.4"/>
</g>
<g>
	<path fill="#FFFFFF" stroke="#F2F2F2" stroke-miterlimit="10" d="M108.2,199.7c2.6,0,4.5-1.4,4.5-4l-0.1-14.8c0-2.6-2-4.8-4.5-4.8
		l-89.8,0.4c-2.6,0-4.8,2.2-4.7,4.8l0.1,14.8c0,2.6,2.2,4,4.8,4L108.2,199.7z M17.6,195.4c0-1.6,1.3-3,2.9-3c1.6,0,2.9,1.3,2.9,3
		c0,1.6-1.3,3-2.9,3C18.9,198.3,17.7,197,17.6,195.4z"/>
	
		<rect x="87.3" y="179.9" transform="matrix(5.003984e-03 1 -1 5.003984e-03 286.6393 87.393)" fill="#007E9A" width="24.2" height="15.7"/>
	
		<rect x="66.9" y="180" transform="matrix(5.003984e-03 1 -1 5.003984e-03 266.4557 107.8818)" fill="#007E9A" width="24.2" height="15.7"/>
	
		<rect x="46.5" y="180.1" transform="matrix(5.003984e-03 1 -1 5.003984e-03 246.2722 128.3706)" fill="#007E9A" width="24.2" height="15.7"/>
	
		<rect x="26.1" y="180.2" transform="matrix(5.003984e-03 1 -1 5.003984e-03 226.0887 148.8594)" fill="#007E9A" width="24.2" height="15.7"/>
	
		<rect x="60.3" y="153" transform="matrix(5.003984e-03 1 -1 5.003984e-03 259.9753 126.1499)" opacity="0.3" fill="#FFFFFF" width="12.6" height="81.4"/>
</g>
<g>
	<g>
		<path fill="#F6921E" d="M159.3,198.9l5.4,0l0.1-42.5l-5.4,0l-5.6,0l-0.1,42.5L159.3,198.9z M160.2,194.8c0,0.6-0.4,1-0.9,1.2
			c0,0-0.1,0-0.1,0c-0.1,0-0.1,0-0.2,0c-0.7,0-1.2-0.5-1.2-1.2c0-0.7,0.5-1.2,1.2-1.2c0.1,0,0.2,0,0.2,0c0,0,0.1,0,0.1,0
			C159.8,193.8,160.2,194.3,160.2,194.8z"/>
	</g>
	<g opacity="0.4">
		<path fill="#FFFFFF" d="M159.3,198.7l5.3,0l0.1-41.4l-1,0l-4.3,0l-5,0l-0.4,0l-0.1,41.4L159.3,198.7z M160.2,194.8
			c0,0.6-0.4,1-0.9,1.2c0,0-0.1,0-0.1,0c-0.1,0-0.1,0-0.2,0c-0.7,0-1.2-0.5-1.2-1.2c0-0.7,0.5-1.2,1.2-1.2c0.1,0,0.2,0,0.2,0
			c0,0,0.1,0,0.1,0C159.8,193.8,160.2,194.3,160.2,194.8z"/>
	</g>
	<g>
		<g>
			<g>
				<g>
					<path fill="#F6921E" d="M159,196.9c0.1,0,0.1,0,0.2,0c0,0,0.1,0,0.1,0c1-0.2,1.8-1,1.8-2.1c0-1-0.8-1.9-1.8-2.1
						c0,0-0.1,0-0.1,0c-0.1,0-0.1,0-0.2,0c-1.2,0-2.1,0.9-2.1,2.1C156.9,196,157.8,196.9,159,196.9z M157.8,194.8
						c0-0.7,0.5-1.2,1.2-1.2c0.1,0,0.2,0,0.2,0c0,0,0.1,0,0.1,0c0.5,0.1,0.9,0.6,0.9,1.2c0,0.6-0.4,1-0.9,1.2c0,0-0.1,0-0.1,0
						c-0.1,0-0.1,0-0.2,0C158.3,196.1,157.8,195.5,157.8,194.8z"/>
				</g>
			</g>
		</g>
		<g>
			<g>
				<g>
					<path fill="#F6921E" d="M159.3,199.4l6,0l0.2-43.4l-12.5,0v0l-0.2,43.3L159.3,199.4z M163.7,157.3l0,0.3l-1.1,0l0,0.4l1.1,0
						l0,1.3l-1.1,0.1l0,0.5h1.1l0,1.2l-1.1-0.1l0,0.4l1.1,0.1l0,1.4h-1.1l0,0.4l1.1,0l0.2,1.3l-0.9,0v0.4l0.9,0l-0.1,0.4l-3.3,0
						l0,1.7l3.2,0l0,0.5l-1.1,0l0,0.4h1.1l0,1.4l-1.1,0l0,0.4l1.1-0.1l0,1.3H163v0.6l0.9,0l-0.1,1.3l-1.2,0l0,0.4l1.1,0l0,1.3
						l-1.1,0l0,0.4l1.1,0l0,0.5l-3.3,0l0,1.7l3.3,0l0,0.6l-1.1,0l0,0.4l1.1,0l0.2,1.3l-0.9,0v0.4l0.9,0l0.1,1.3l-1,0v0.4l0.9,0
						l-0.1,1.3l-1.2,0l0,0.4l1.1,0l0,1.3l-1.1-0.2l0,0.2h1.1l0,0.6l-3.3,0.1l0,1.7l3.3,0.2l0,1.4h-1.1l0,0.3l1.1-0.3l0,1H163v0.8
						l1,0v1.3l-1.3,0l-0.1,0.4l1.1,0l0,1.3l-1.1,0l0,0.4l1.1,0l0,1.3l-1.1-0.1l0,0.4h1.1l0,1.7l-4.3,0l-5,0l0.1-40.4l0-0.4l5,0
						l4.3,0L163.7,157.3z"/>
				</g>
			</g>
		</g>
	</g>
	<g opacity="0.2">
		<path fill="#FFFFFF" d="M152.7,199.4l0.1-43.3l6.4,0l-0.2,0.4v0.4l0.2,0.4l0,35.5l0.1,0.9c0,0-0.1,0-0.1,0c-0.1,0-0.1,0-0.2,0
			c-0.7,0-1.2,0.5-1.2,1.2c0,0.7,0.5,1.2,1.2,1.2c0.1,0,0.2,0,0.2,0c0,0,0.1,0,0.1,0l0,0.9l0,0.8l0,1l0,0.2l0,0.5L152.7,199.4z"/>
	</g>
</g>
<g>
	<g>
		
			<rect x="176" y="134.6" transform="matrix(1 1.598013e-03 -1.598013e-03 1 0.266 -0.2841)" fill="#009245" width="3.8" height="63.4"/>
	</g>
	<g opacity="0.2">
		
			<rect x="176" y="134.6" transform="matrix(1 1.598013e-03 -1.598013e-03 1 0.266 -0.2841)" fill="#FBB03B" width="3.8" height="63.4"/>
	</g>
	<g>
		<g>
			<g>
				<path fill="#8CC63F" d="M180.1,134.4l-0.3-1.3l0,0l-1.9-8.7l-1.3,6.2l-0.2,0.8l-0.3,1.7l-0.3,1.3l-1,5l-0.1,60l6.2,0l0.1-60
					L180.1,134.4z M179.6,196.7l-3.2,0l0.1-51.3c0.5,0.3,1.1,0.5,1.6,0.5c0.5,0,1.1-0.1,1.6-0.4L179.6,196.7z M179.6,140.9
					c-0.5,0.5-1.1,0.8-1.6,0.8c-0.6,0-1.1-0.3-1.6-0.8l0-0.9l1-4.8l0-0.1c0.2,0.1,0.4,0.2,0.7,0.2c0.2,0,0.4-0.1,0.7-0.2l0,0.1
					l0.9,4.8L179.6,140.9z"/>
			</g>
			<g>
				<polygon fill="#8CC63F" points="176.5,131.5 176.2,133.1 176.1,133.1 				"/>
			</g>
		</g>
	</g>
	<g>
		<g>
			<g>
				<g>
					<path fill="#424143" d="M176.7,130.6l-0.2,0.9L176.7,130.6L176.7,130.6z"/>
				</g>
			</g>
		</g>
	</g>
	<g>
		<path fill="#404041" d="M180.1,134.4c-0.4,0.3-0.9,0.6-1.4,0.7c-0.2,0.1-0.5,0.1-0.7,0.1l0,0c-0.2,0-0.4,0-0.6-0.1
			c-0.5-0.1-1-0.3-1.4-0.7l0.3-1.3l0,0l0.4-1.7l0.2-0.8l1.3-6.2l1.9,8.7l0,0L180.1,134.4z"/>
	</g>
	<g>
		<rect x="177.1" y="144" fill="#8CC63F" width="1.9" height="54"/>
	</g>
	<g opacity="0.2">
		<polygon fill="#FFFFFF" points="181.1,139.4 181,199.5 177.9,199.5 178,124.4 179.9,133.1 179.9,133.2 180.1,134.4 		"/>
	</g>
</g>
<path fill="#F2F2F2" stroke="#E6E6E6" stroke-miterlimit="10" d="M202.7,199.5l-15.5-0.1c-1,0-1.8-0.8-1.7-1.8l0-5.1
	c0-1,0.8-1.8,1.8-1.7l15.5,0.1c1,0,1.8,0.8,1.7,1.8l0,5.1C204.5,198.7,203.7,199.5,202.7,199.5z"/>
</svg>
