<?xml version="1.0" encoding="utf-8"?>
<!-- Generator: Adobe Illustrator 18.1.0, SVG Export Plug-In . SVG Version: 6.00 Build 0)  -->
<!DOCTYPE svg PUBLIC "-//W3C//DTD SVG 1.1//EN" "http://www.w3.org/Graphics/SVG/1.1/DTD/svg11.dtd">
<svg version="1.1" id="Layer_1" xmlns="http://www.w3.org/2000/svg" xmlns:xlink="http://www.w3.org/1999/xlink" x="0px" y="0px"
	 viewBox="0 0 288 173.6" enable-background="new 0 0 288 173.6" xml:space="preserve">
<g>
	<path fill="#FFFFFF" d="M149,112.6c0-0.9,0.2-1.9,0.5-2.8c0.3-0.9,0.8-1.7,1.4-2.5c0.6-0.7,1.4-1.3,2.3-1.8
		c0.9-0.5,1.9-0.7,3.1-0.7c1.4,0,2.5,0.3,3.5,0.9c1,0.6,1.7,1.4,2.2,2.4l-1.2,0.7c-0.2-0.5-0.5-0.9-0.9-1.3
		c-0.3-0.3-0.7-0.6-1.1-0.8c-0.4-0.2-0.8-0.4-1.3-0.5c-0.4-0.1-0.9-0.1-1.3-0.1c-0.9,0-1.7,0.2-2.5,0.6c-0.7,0.4-1.3,0.9-1.8,1.5
		c-0.5,0.6-0.9,1.3-1.1,2.1c-0.2,0.8-0.4,1.5-0.4,2.3c0,0.9,0.1,1.7,0.4,2.5c0.3,0.8,0.7,1.5,1.2,2.1c0.5,0.6,1.1,1.1,1.8,1.4
		c0.7,0.4,1.5,0.5,2.3,0.5c0.4,0,0.9-0.1,1.3-0.2c0.5-0.1,0.9-0.3,1.3-0.5c0.4-0.2,0.8-0.5,1.2-0.9c0.4-0.4,0.7-0.8,0.9-1.3l1.3,0.7
		c-0.2,0.6-0.6,1.1-1,1.5c-0.4,0.4-0.9,0.8-1.5,1.1c-0.6,0.3-1.1,0.5-1.7,0.7c-0.6,0.2-1.2,0.2-1.8,0.2c-1.1,0-2-0.2-2.9-0.7
		c-0.9-0.5-1.6-1.1-2.3-1.8c-0.6-0.7-1.1-1.6-1.5-2.5C149.2,114.6,149,113.6,149,112.6z"/>
	<path fill="#FFFFFF" d="M175.4,120.6c-1.1,0-2.1-0.2-2.9-0.7c-0.9-0.4-1.7-1-2.3-1.8c-0.6-0.7-1.1-1.6-1.5-2.5
		c-0.3-0.9-0.5-1.9-0.5-2.9c0-1,0.2-2,0.6-3c0.4-0.9,0.9-1.8,1.5-2.5c0.7-0.7,1.4-1.3,2.3-1.7c0.9-0.4,1.8-0.6,2.9-0.6
		c1.1,0,2.1,0.2,2.9,0.7c0.9,0.5,1.7,1.1,2.3,1.8c0.6,0.7,1.1,1.6,1.5,2.5c0.3,0.9,0.5,1.9,0.5,2.9c0,1-0.2,2-0.6,3
		c-0.4,0.9-0.9,1.8-1.5,2.5c-0.6,0.7-1.4,1.3-2.3,1.7C177.4,120.4,176.4,120.6,175.4,120.6z M169.7,112.7c0,0.8,0.1,1.6,0.4,2.4
		c0.3,0.8,0.7,1.5,1.2,2.1c0.5,0.6,1.1,1.1,1.8,1.4c0.7,0.4,1.5,0.5,2.3,0.5c0.9,0,1.7-0.2,2.4-0.6c0.7-0.4,1.3-0.9,1.8-1.5
		c0.5-0.6,0.9-1.3,1.1-2.1c0.3-0.8,0.4-1.6,0.4-2.3c0-0.8-0.1-1.6-0.4-2.4c-0.3-0.8-0.7-1.5-1.2-2.1c-0.5-0.6-1.1-1.1-1.8-1.4
		c-0.7-0.4-1.5-0.5-2.3-0.5c-0.9,0-1.7,0.2-2.4,0.6c-0.7,0.4-1.3,0.9-1.8,1.5c-0.5,0.6-0.9,1.3-1.1,2.1
		C169.8,111.2,169.7,112,169.7,112.7z"/>
	<path fill="#FFFFFF" d="M191.4,107.9v12.6h-1.5V105h1.2l10.2,12.8v-12.8h1.5v15.4h-1.3L191.4,107.9z"/>
	<path fill="#FFFFFF" d="M212.6,107.9v12.6h-1.5V105h1.2l10.2,12.8v-12.8h1.5v15.4h-1.3L212.6,107.9z"/>
	<path fill="#FFFFFF" d="M242.6,119.1v1.3h-10.4V105h10.2v1.3h-8.7v5.6h7.6v1.3h-7.6v5.9H242.6z"/>
	<path fill="#FFFFFF" d="M249.9,120.5V105h6.5c0.7,0,1.3,0.1,1.8,0.4c0.6,0.3,1.1,0.7,1.5,1.1c0.4,0.5,0.7,1,0.9,1.6
		c0.2,0.6,0.3,1.2,0.3,1.8c0,0.6-0.1,1.1-0.2,1.6c-0.2,0.5-0.4,1-0.7,1.4c-0.3,0.4-0.7,0.8-1.1,1c-0.4,0.3-0.9,0.5-1.4,0.6l3.8,6
		h-1.7l-3.7-5.7h-4.6v5.7H249.9z M251.4,113.4h5.1c0.4,0,0.9-0.1,1.2-0.3c0.4-0.2,0.7-0.5,0.9-0.8c0.3-0.3,0.5-0.7,0.6-1.1
		c0.1-0.4,0.2-0.9,0.2-1.3c0-0.5-0.1-0.9-0.2-1.3c-0.2-0.4-0.4-0.8-0.7-1.1c-0.3-0.3-0.6-0.6-1-0.8c-0.4-0.2-0.8-0.3-1.2-0.3h-4.9
		V113.4z"/>
</g>
<g>
	<path fill="#FFFFFF" d="M169.7,82.5c0-0.3,0-0.6-0.1-0.8c-0.2-1.1-0.5-2-0.9-2.8c-0.4-0.8-0.9-1.5-1.3-2.1c0,0-0.1-0.1-0.1-0.1
		c-0.1-0.1-0.2-0.2-0.3-0.3c-0.1-0.1-0.2-0.3-0.3-0.4c-0.2-0.3-0.4-0.5-0.7-0.8l-0.3-0.3l-0.1-0.1l0,0l-0.1-0.1l-0.2-0.1l-0.6-0.6
		c-0.1-0.1-0.2-0.2-0.3-0.3l-0.3-0.3l-0.6-0.5c-0.4-0.4-0.9-0.7-1.3-1c-1.7-1.3-3.5-2.5-5.3-3.6c-0.9-0.5-1.8-1-2.6-1.5
		c-0.4-0.2-0.9-0.5-1.3-0.7c-0.4-0.2-0.8-0.5-1.3-0.7c-0.4-0.2-0.8-0.5-1.2-0.7l-0.6-0.3l-0.6-0.3l-0.3-0.2
		c-0.1-0.1-0.2-0.1-0.3-0.2l-0.6-0.4l-0.6-0.3c-0.2-0.1-0.4-0.2-0.5-0.3c-1.4-0.9-2.7-1.8-3.6-2.7c-0.5-0.5-0.9-0.9-1.2-1.4
		l-0.1-0.2c0-0.1-0.1-0.1-0.1-0.2l-0.1-0.2l0,0l0,0l0,0l0,0c0,0,0-0.1-0.1-0.1l0,0c0,0,0,0,0,0l0,0l0-0.1l-0.1-0.3l-0.1-0.2l0-0.1
		c0,0.1,0,0.1,0,0.1c0,0,0,0,0,0c0,0,0,0,0,0c0,0,0,0,0,0l0,0c-0.2-0.4-0.3-0.9-0.3-1.5l0-0.2c0-0.1,0-0.1,0-0.2l0-0.2l0-0.1l0-0.1
		c0-0.1,0-0.3,0-0.4c0-0.1,0-0.3,0-0.5c0-0.3,0.1-0.6,0.2-0.9c0-0.2,0.1-0.3,0.1-0.5c0-0.2,0.1-0.3,0.1-0.5c0.1-0.2,0.1-0.3,0.2-0.5
		c0.1-0.2,0.1-0.3,0.2-0.5c0.1-0.2,0.1-0.3,0.2-0.5c0.1-0.2,0.1-0.3,0.2-0.5c0.1-0.2,0.1-0.3,0.2-0.5c0.1-0.1,0.1-0.3,0.2-0.4
		l0.1-0.1c0,0,0,0,0-0.1l0-0.1l0.1-0.3l0.1-0.3l0,0c0,0,0,0,0,0c0,0,0,0,0,0l0.1-0.2c0.1-0.2,0.2-0.3,0.3-0.5
		c0.1-0.1,0.2-0.3,0.3-0.4c0.1-0.2,0.2-0.3,0.3-0.4c0.1-0.1,0.2-0.3,0.3-0.4c0.2-0.3,0.4-0.6,0.6-0.8c0.2-0.3,0.4-0.5,0.6-0.8
		c0.4-0.5,0.8-1,1.3-1.4c0.2-0.2,0.4-0.4,0.7-0.6c0.1-0.1,0.2-0.2,0.3-0.3c0.1-0.1,0.2-0.2,0.3-0.3c0.2-0.2,0.5-0.4,0.7-0.5
		c0.1-0.1,0.2-0.2,0.4-0.2c0.1-0.1,0.2-0.1,0.4-0.2c0.2-0.2,0.4-0.2,0.7-0.4c0.1-0.1,0.3-0.1,0.4-0.2c0.2-0.1,0.3-0.1,0.5-0.2l0,0
		c0,0,0,0-0.1,0c0,0,0,0,0,0l0,0l0.1,0l0.2-0.1c0.1,0,0.2-0.1,0.4-0.1c0.2-0.1,0.5-0.1,0.7-0.2c0.5-0.1,1-0.2,1.4-0.2
		c0.5,0,0.9,0,1.4,0c0.9,0.1,1.7,0.3,2.5,0.6c0.7,0.3,1.3,0.6,1.9,1c0.5,0.4,0.9,0.7,1.2,1.1c0,0,0.1,0.1,0.1,0.1
		c0,0,0.1,0.1,0.1,0.1c0.1,0.1,0.1,0.1,0.2,0.2c0.1,0.1,0.2,0.3,0.3,0.4c0.1,0.2,0.2,0.3,0.2,0.3s0-0.1,0-0.4c0-0.1-0.1-0.3-0.1-0.5
		c0-0.1,0-0.2-0.1-0.3c0-0.1,0-0.1,0-0.2c0-0.1,0-0.1-0.1-0.2c-0.2-0.5-0.4-1-0.8-1.6c-0.2-0.3-0.4-0.6-0.7-1c-0.3-0.3-0.6-0.6-1-1
		c-0.7-0.6-1.6-1.2-2.7-1.7c-0.5-0.2-1.1-0.5-1.8-0.6c-0.6-0.2-1.3-0.3-2-0.4c-0.4,0-0.7-0.1-1.1-0.1c-0.2,0-0.4,0-0.6,0
		c-0.1,0-0.2,0-0.3,0l-0.1,0l-0.1,0c0.1,0-0.1,0-0.1,0l0,0c-0.2,0-0.3,0-0.5,0.1c-0.2,0-0.3,0-0.5,0.1c-0.4,0.1-0.9,0.2-1.2,0.3
		c-1.6,0.4-3.1,1.1-4.6,2c-1.5,0.9-2.9,2-4.2,3.3c-0.6,0.6-1.3,1.3-1.9,2L137,44l-0.1,0.1c-0.1,0.1,0,0-0.1,0.1l0,0l-0.2,0.2
		l-0.2,0.2l0,0.1c0,0,0,0-0.1,0.1l-0.1,0.2c-0.2,0.2-0.3,0.4-0.5,0.6c-0.1,0.2-0.3,0.4-0.4,0.6c-0.5,0.8-1.1,1.7-1.5,2.7
		c-0.1,0.2-0.2,0.5-0.3,0.7c-0.1,0.1-0.1,0.2-0.2,0.4l-0.2,0.4c-0.2,0.5-0.4,1.1-0.5,1.6c-0.3,1.1-0.5,2.3-0.6,3.6
		c-0.1,1.3,0,2.6,0.3,4c0.1,0.3,0.2,0.6,0.2,0.9l0,0.1l0,0c0,0,0,0,0,0.1l0.1,0.3c0.1,0.2,0.1,0.4,0.2,0.6l0.1,0.3l0,0.1l0,0.1
		l0.1,0.1l0.2,0.5c0.1,0.2,0.1,0.3,0.2,0.5l0.2,0.4c0.6,1.2,1.4,2.2,2.2,3.2c0.8,0.9,1.7,1.8,2.5,2.5c0.6,0.5,1.3,1,1.9,1.5
		c-0.3,0.2-0.6,0.5-0.8,0.7c-0.7,0.7-1.3,1.5-1.9,2.6c-0.3,0.5-0.5,1.1-0.8,1.7c-0.2,0.6-0.4,1.3-0.5,2c0,0.1,0,0.2,0,0.3
		c0,0.1,0,0.2,0,0.3c0,0.2,0,0.4,0,0.6c0,0.2,0,0.4,0,0.6c0,0.2,0,0.3,0,0.5v0.1c0,0,0,0.1,0,0.1c0,0,0,0,0,0l0,0l0,0.1
		c0,0.1,0,0.2,0,0.3c0,0.2,0,0.4,0.1,0.6c0,0.2,0.1,0.4,0.1,0.6c0,0.1,0,0.2,0.1,0.3c0,0.1,0,0.2,0.1,0.3c0.1,0.2,0.1,0.4,0.2,0.6
		l0,0.2l0.1,0.1c0,0.1,0.1,0.2,0.1,0.3c0.1,0.2,0.1,0.4,0.2,0.6c0.1,0.2,0.2,0.4,0.3,0.6c0,0.1,0.1,0.2,0.1,0.3
		c0.1,0.1,0.1,0.2,0.1,0.3c0.1,0.2,0.2,0.4,0.3,0.6c0.1,0.2,0.2,0.4,0.3,0.6c0.1,0.2,0.2,0.4,0.4,0.6c0.1,0.2,0.3,0.4,0.4,0.6
		c0.1,0.2,0.3,0.4,0.4,0.5c0.3,0.4,0.6,0.7,0.9,1.1c0.2,0.2,0.3,0.3,0.5,0.5c0.2,0.2,0.4,0.3,0.5,0.5c0.2,0.2,0.4,0.3,0.6,0.5
		c0.2,0.1,0.4,0.3,0.6,0.4l0.3,0.2l0.3,0.2l0.3,0.2l0.2,0.1c0.1,0,0.1,0.1,0.2,0.1c0.3,0.1,0.5,0.3,0.8,0.4l0.2,0.1l0.1,0.1l0.3,0.1
		l0.3,0.1l0.1,0c0.1,0-0.1,0,0.2,0.1l0,0l0.2,0.1c0.2,0.1,0.5,0.2,0.7,0.3c0.2,0.1,0.5,0.2,0.8,0.2c0.3,0.1,0.5,0.2,0.8,0.2
		c0.5,0.1,1,0.2,1.6,0.3c0.5,0.1,1.1,0.2,1.6,0.2c0.5,0.1,1.1,0.1,1.6,0.1c0.3,0,0.5,0,0.8,0c0.3,0,0.5,0,0.8,0l0.4,0l0.4,0
		c0.3,0,0.6-0.1,0.8-0.1c0.3,0,0.5-0.1,0.8-0.1c0.3-0.1,0.5-0.1,0.8-0.2c0.3-0.1,0.5-0.1,0.8-0.2l0.4-0.1c0.1,0,0.3-0.1,0.4-0.1
		l0.4-0.1c0.1,0,0.3-0.1,0.4-0.1c0.3-0.1,0.6-0.2,0.9-0.3c0.2-0.1,0.4-0.2,0.7-0.3l0.2-0.1l0.3-0.1c0.1-0.1,0.3-0.1,0.4-0.2
		c0.6-0.3,1.2-0.6,1.7-1c0.3-0.2,0.6-0.4,0.9-0.6l0.4-0.4c0.1-0.1,0.3-0.3,0.4-0.4c0.6-0.5,1.2-1.2,1.7-2c0.1-0.2,0.3-0.4,0.4-0.6
		c0.1-0.2,0.2-0.5,0.3-0.7l0.1-0.2l0.1-0.2c0-0.1,0.1-0.3,0.1-0.4l0.1-0.2l0-0.1l0-0.1c0-0.2,0.1-0.3,0.1-0.5c0,0,0,0,0-0.1
		c0-0.2,0.1-0.3,0.1-0.5l0-0.2l0-0.2l0,0c0,0,0-0.4,0-0.4c0,0,0,0,0,0l0-0.2C169.7,83.1,169.7,82.8,169.7,82.5z M159.7,82.9
		c0,0.1,0,0.1,0,0.2c0,0,0,0.1,0,0.1l0-0.1L159.7,82.9C159.6,83,159.6,83,159.7,82.9c0,0.1-0.1,0.2-0.1,0.2c0,0,0,0,0,0
		c0,0,0,0.1,0,0.1c0,0,0,0.1,0,0.1c0,0.1,0,0.2,0,0.1c0,0-0.1-0.1-0.2-0.3c0,0,0,0,0,0c-0.2,0.2-0.4,0.3-0.7,0.5
		c-0.1,0-0.1,0.1-0.2,0.1l0,0l0,0c0,0,0,0,0,0l-0.1,0.1c-0.2,0.1-0.4,0.2-0.6,0.3c-0.1,0.1-0.3,0.1-0.4,0.2c-0.1,0-0.1,0.1-0.2,0.1
		l-0.2,0.1c-0.1,0-0.2,0.1-0.2,0.1l-0.2,0.1c-0.2,0.1-0.3,0.1-0.5,0.2c-0.2,0.1-0.3,0.1-0.5,0.2c-0.2,0-0.3,0.1-0.5,0.1
		c-0.2,0.1-0.3,0.1-0.5,0.1l-0.2,0.1l-0.2,0.1c-0.2,0-0.3,0.1-0.5,0.1c-0.2,0-0.3,0.1-0.5,0.1c-0.3,0-0.7,0.1-1,0.1
		c-0.3,0-0.6,0-1,0c-0.2,0-0.3,0-0.5,0c-0.2,0-0.3,0-0.5,0c-0.2,0-0.3,0-0.5,0c-0.2,0-0.3,0-0.5-0.1c-0.2,0-0.3-0.1-0.5-0.1l-0.1,0
		l0,0c0,0,0.1,0,0.1,0c0,0,0,0,0,0c0,0,0,0,0,0l-0.1,0l-0.6-0.2l-0.1,0l0,0l0,0l-0.1,0c-0.1,0-0.2-0.1-0.3-0.1c0,0-0.1,0-0.1,0
		l-0.1,0l-0.2-0.1l-0.2-0.1l-0.2-0.1c-0.6-0.2-1.1-0.5-1.6-0.8c-0.2-0.2-0.5-0.3-0.7-0.5c-0.1-0.1-0.2-0.2-0.3-0.3
		c-0.1-0.1-0.2-0.2-0.3-0.3c-0.1-0.1-0.2-0.2-0.3-0.3c-0.1-0.1-0.2-0.2-0.3-0.3c-0.1-0.1-0.2-0.2-0.3-0.3l-0.1-0.2l-0.1-0.2
		c-0.1-0.1-0.2-0.2-0.3-0.3c-0.1-0.1-0.1-0.2-0.2-0.3l-0.1-0.2l-0.1-0.1l0-0.1c-0.1-0.1-0.1-0.2-0.2-0.3c0-0.1-0.1-0.1-0.1-0.2
		l-0.1-0.2c-0.1-0.1-0.1-0.2-0.2-0.3c-0.1-0.1-0.1-0.2-0.1-0.4l-0.1-0.2l0-0.1l0,0c0,0,0,0,0,0c0,0,0,0,0,0c0,0,0,0,0,0l0-0.1
		c0-0.1-0.1-0.3-0.1-0.4c0-0.1-0.1-0.2-0.1-0.3c0-0.1-0.1-0.2-0.1-0.4c0-0.1,0-0.1,0-0.2c0-0.1,0-0.1,0-0.2c-0.1-0.5-0.1-1-0.1-1.4
		c0-0.5,0.1-0.9,0.1-1.4c0.1-0.4,0.2-0.9,0.3-1.3c0.1-0.4,0.3-0.8,0.4-1.1c0.2-0.4,0.3-0.7,0.5-1l0.2,0.1l0.1,0.1l0,0l0.1,0l0.9,0.6
		c0.1,0.1,0.2,0.1,0.3,0.2l0.3,0.2l0.7,0.4l0.6,0.4c0.4,0.3,0.9,0.5,1.3,0.8c1.7,1,3.4,2,5,3c1.6,1,3.1,1.9,4.5,2.9
		c0.3,0.3,0.7,0.5,1,0.8l0.5,0.4l0.2,0.2c0.1,0.1,0.2,0.1,0.2,0.2l0.5,0.4l0.1,0.1c0,0,0,0,0,0l0,0l0.1,0.1l0.2,0.2
		c0.1,0.1,0.2,0.2,0.3,0.3c0,0,0.1,0.1,0.1,0.1c0,0,0.1,0.1,0.1,0.1c0,0,0,0,0,0C159.5,83.2,159.6,83.1,159.7,82.9
		C159.6,83,159.6,82.9,159.7,82.9L159.7,82.9L159.7,82.9C159.6,83,159.7,83,159.7,82.9C159.7,82.9,159.7,82.9,159.7,82.9L159.7,82.9
		L159.7,82.9C159.7,82.9,159.7,82.9,159.7,82.9c0-0.1,0-0.1,0.1-0.1c0,0,0,0,0,0l0,0c0,0,0,0,0-0.1c0,0,0,0,0,0
		C159.8,82.7,159.8,82.8,159.7,82.9z M141.7,57.1C141.7,57.1,141.7,57.1,141.7,57.1C141.7,57.1,141.7,57.1,141.7,57.1L141.7,57.1z
		 M141.7,57.1C141.7,57.1,141.7,57.1,141.7,57.1C141.7,57.1,141.7,57.1,141.7,57.1C141.7,57.1,141.7,57.1,141.7,57.1z M159.9,83.2
		L159.9,83.2C159.9,83.2,159.9,83.2,159.9,83.2c0,0.1,0,0.1,0,0.1c0,0,0,0.1,0,0.1c0,0.1,0,0.2,0,0.1c0,0-0.1-0.1-0.2-0.3
		c0.1-0.1,0.2-0.2,0.3-0.3C159.9,83,159.9,83.1,159.9,83.2z M159.9,82.9c0,0.1,0,0.1,0,0.2c0,0,0,0.1,0,0.1l0-0.1L159.9,82.9
		C159.9,83,159.9,83,159.9,82.9z M211.6,67.7l0-0.2l0-0.5c0-0.3,0-0.7-0.1-1c0-0.3-0.1-0.6-0.1-0.9c0-0.3-0.1-0.6-0.1-0.9
		c-0.2-1.1-0.5-2.2-0.8-3.3c-0.1-0.3-0.2-0.5-0.3-0.8c-0.1-0.3-0.2-0.5-0.3-0.8c-0.1-0.2-0.2-0.5-0.3-0.7c-0.1-0.2-0.2-0.5-0.3-0.7
		c-0.9-1.9-2-3.6-3.2-5.1c-1.2-1.5-2.5-2.8-3.9-3.9c-0.2-0.1-0.3-0.3-0.5-0.4l0,0c-0.1-0.1-0.1-0.1-0.1-0.1c0,0,0,0,0,0l-0.1,0
		l-0.1-0.1l-0.2-0.2c-0.2-0.1-0.3-0.2-0.5-0.3l-0.1-0.1l-0.1-0.1c-0.1-0.1-0.2-0.1-0.3-0.2c-0.2-0.1-0.4-0.2-0.5-0.3
		c-0.1-0.1-0.2-0.1-0.3-0.2c-0.1-0.1-0.2-0.1-0.3-0.2c-0.3-0.2-0.7-0.4-1-0.6c-0.3-0.2-0.7-0.3-1-0.5c-0.3-0.2-0.7-0.3-1-0.5
		c-0.3-0.2-0.7-0.3-1-0.4c-0.3-0.1-0.6-0.3-1-0.4c-0.3-0.1-0.6-0.2-0.9-0.3c-0.3-0.1-0.6-0.2-0.9-0.3c-0.3-0.1-0.6-0.2-0.9-0.2
		c-0.3-0.1-0.6-0.2-0.9-0.2c-0.6-0.1-1.1-0.2-1.6-0.3c-0.3,0-0.5-0.1-0.8-0.1c-0.2,0-0.5-0.1-0.7-0.1c-0.2,0-0.5-0.1-0.7-0.1
		c-0.2,0-0.4,0-0.6-0.1c-0.2,0-0.4,0-0.6-0.1c-0.2,0-0.4,0-0.6,0c-0.4,0-0.7,0-1,0c-0.1,0-0.2,0-0.4,0c0.2-0.4,0.4-0.7,0.6-1
		c0.1-0.1,0.2-0.3,0.3-0.4c0.1-0.1,0.2-0.3,0.3-0.4c0.1-0.1,0.2-0.2,0.2-0.3c0.1-0.1,0.2-0.2,0.2-0.3c0.1-0.2,0.3-0.4,0.4-0.5
		c0.1-0.1,0.2-0.3,0.3-0.4c0.1-0.2,0.2-0.3,0.2-0.3c0,0-0.1,0.1-0.3,0.2c-0.1,0.1-0.3,0.1-0.4,0.2c-0.2,0.1-0.4,0.2-0.6,0.3
		c-0.1,0.1-0.2,0.1-0.3,0.2c-0.1,0.1-0.2,0.2-0.4,0.2c-0.1,0.1-0.3,0.2-0.4,0.3c-0.1,0.1-0.3,0.2-0.4,0.3c-0.3,0.2-0.6,0.5-0.9,0.7
		c-0.2,0.1-0.3,0.3-0.5,0.4c-0.2,0.1-0.3,0.3-0.5,0.5c-1.4,1.3-3,3.1-4.4,5.3c-0.1,0.1-0.2,0.3-0.3,0.4c-0.1,0.1-0.2,0.3-0.3,0.4
		c-0.2,0.3-0.4,0.6-0.5,0.9c-0.4,0.6-0.7,1.3-1,2c-0.2,0.3-0.3,0.7-0.5,1c-0.2,0.4-0.3,0.7-0.5,1.1c-0.1,0.4-0.3,0.7-0.4,1.1
		c-0.1,0.4-0.3,0.8-0.4,1.1c-1.1,3.1-2,6.5-2.7,10.2c-0.1,0.5-0.2,0.9-0.2,1.4c-0.1,0.5-0.1,1-0.2,1.4c-0.1,0.5-0.1,1-0.2,1.5
		c0,0.5-0.1,1-0.1,1.5c0,0.5,0,1.1-0.1,1.6c0,0.3,0,0.5,0,0.8c0,0.3,0,0.5,0,0.8c0,0.5,0.1,1,0.1,1.5c0.1,0.6,0.1,1.3,0.2,1.9
		c0.1,0.6,0.2,1.2,0.4,1.7l0.1,0.4l0.1,0.5l0.1,0.4l0.1,0.2l0,0l0,0.1l0,0.1c0.1,0.3,0.2,0.7,0.4,1c0.1,0.3,0.2,0.6,0.4,0.9
		c0.1,0.3,0.3,0.6,0.4,0.9l0,0.1l0.2,0.4l0.2,0.4c1.2,2.3,2.9,4.4,5.2,6.2c0.3,0.2,0.6,0.4,0.9,0.6c0.3,0.2,0.6,0.4,0.9,0.6
		c0.6,0.4,1.3,0.7,2,1c0.2,0.1,0.3,0.1,0.5,0.2l0.5,0.2l0.5,0.2l0.1,0l0.2,0.1l0.2,0l0.2,0l0.1,0c0,0,0,0,0.1,0
		c0.2,0,0.4,0.1,0.6,0.1l0.3,0.1c0.1,0,0.2,0,0.3,0l0.6,0.1c1.5,0.2,3,0.1,4.5-0.1c1.4-0.2,2.8-0.6,4.1-1.1c2.6-1,4.8-2.5,6.7-4.1
		c1-0.8,1.9-1.7,2.7-2.6c0.8-0.9,1.6-1.8,2.3-2.8l0,0c0,0,0.1-0.1,0.1-0.1l0.1-0.1l0.1-0.2l0.2-0.3l0.1-0.2l0.1-0.2l0.3-0.4
		c0.2-0.3,0.3-0.5,0.5-0.8c0.2-0.2,0.3-0.5,0.5-0.8c0.6-1,1.1-2.1,1.6-3.1c1-2.2,1.7-4.5,2-6.9c0.1-0.6,0.2-1.2,0.2-1.8
		c0-0.2,0-0.4,0-0.6l0-0.4v-0.8C211.6,67.8,211.6,67.8,211.6,67.7z M202.6,65.9c0,0.2,0,0.4,0,0.5c0,0.1,0,0.3,0,0.5l0,0.2l0,0.1
		c0,0,0,0,0,0.1l0,0.1c0,0.2-0.1,0.5-0.1,0.7l0,0.3c0,0,0-0.1,0-0.1c0,0,0,0,0,0l0,0l0,0.1l0,0.1c-0.1,0.4-0.1,0.7-0.2,1.1
		c-0.4,1.4-1,2.9-1.7,4.3c-0.4,0.7-0.8,1.4-1.3,2.1l-0.2,0.3l-0.2,0.3c-0.1,0.2-0.2,0.4-0.4,0.5l-0.2,0.2l-0.1,0.1l-0.1,0.1
		l-0.2,0.3l-0.1,0.2l0,0.1l0,0c0,0,0,0,0,0l0,0c-0.5,0.6-1.1,1.3-1.6,1.9c-0.6,0.6-1.2,1.1-1.8,1.6c-1.3,1-2.6,1.8-3.9,2.3
		c-0.6,0.3-1.3,0.4-1.9,0.5c-0.6,0.1-1.2,0.1-1.7,0.1l-0.2,0c0,0-0.1,0-0.1,0c0,0,0,0-0.1,0c0,0-0.1,0-0.1,0c0,0,0,0-0.1,0l-0.1,0
		l-0.2,0l-0.2,0l0,0c-0.1,0-0.1,0-0.2-0.1l-0.2,0l-0.2-0.1c-0.5-0.2-1-0.4-1.5-0.8c-0.5-0.3-1-0.8-1.5-1.3c-0.5-0.5-0.9-1-1.3-1.6
		l-0.1-0.2l-0.1-0.2c-0.1-0.2-0.2-0.3-0.3-0.5c-0.1-0.2-0.2-0.3-0.2-0.5c-0.1-0.1-0.1-0.3-0.2-0.4l0,0c0,0,0,0,0,0l0,0l-0.1-0.2
		l-0.1-0.3l-0.1-0.2l0-0.1c0,0,0,0,0,0c0,0,0,0,0,0l-0.1-0.2c-0.1-0.4-0.2-0.7-0.3-1.1c-0.8-3-1-6.4-0.9-9.7
		c0.1-3.4,0.3-6.6,0.7-9.5c0.4-2.9,0.9-5.6,1.7-7.8c0.7-2.3,1.5-4.2,2.4-5.8c0.1-0.1,0.1-0.2,0.2-0.3c0.4,0.2,0.9,0.4,1.5,0.6
		c0.2,0.1,0.3,0.1,0.5,0.2c0.2,0.1,0.3,0.2,0.5,0.3c0.2,0.1,0.4,0.2,0.6,0.3c0.2,0.1,0.4,0.2,0.6,0.3c0.2,0.1,0.4,0.2,0.6,0.3
		c0.2,0.1,0.4,0.2,0.6,0.3c0.2,0.1,0.4,0.2,0.7,0.4c0.2,0.1,0.4,0.3,0.7,0.4c0.9,0.5,1.9,1.1,2.8,1.8c1,0.7,2,1.5,2.9,2.3
		c0.2,0.2,0.5,0.5,0.7,0.7l0.2,0.2l0.2,0.2c0.1,0.1,0.2,0.2,0.3,0.3l0.2,0.2l0.1,0.1l0.1,0.1c0.1,0.1,0.3,0.3,0.4,0.4l0.2,0.2
		l0.1,0.1l0,0.1c0,0,0,0,0,0c0,0,0,0,0,0l0,0c0.1,0.1,0.2,0.3,0.3,0.4c1.7,2.1,3.2,4.7,4,7.5c0.1,0.2,0.1,0.4,0.2,0.5
		c0,0.2,0.1,0.4,0.1,0.5c0,0.2,0.1,0.4,0.1,0.5c0,0.2,0.1,0.4,0.1,0.5c0.1,0.4,0.1,0.7,0.1,1.1l0,0.3l0,0.3c0,0.2,0,0.4,0,0.5
		C202.6,65.5,202.6,65.7,202.6,65.9z M117.3,85 M141.4,122.1c0-1-0.1-2.1-0.1-3.1l-0.1-0.8l0-0.4l0-0.4l0-0.4l0-0.2l0-0.2l-0.1-0.7
		l-0.3-3l-0.1-0.7l-0.1-0.7l-0.2-1.5l-0.2-1.5l-0.1-0.7l-0.1-0.7l-0.5-2.9l-0.1-0.7l-0.1-0.7l-0.3-1.5c-0.2-1-0.3-1.9-0.5-2.9
		c-0.4-1.9-0.7-3.9-1.1-5.8c-0.4-1.9-0.8-3.8-1.2-5.7l-1.2-5.7c-0.4-1.9-0.8-3.8-1.2-5.7l-0.6-2.8l-0.5-2.8
		c-0.1-0.5-0.2-0.9-0.3-1.4l-0.2-1.4l-0.5-2.8l-0.5-2.8c-0.1-0.5-0.2-0.9-0.2-1.4l-0.2-1.4l-0.4-2.8l-0.3-2.8l-0.2-1.4l-0.1-1.4
		l-0.2-2.8v0l0,0l0-0.1c-0.2-2.7-2.5-4.7-5.2-4.6c-2.8,0.1-5,2.5-4.8,5.2c0,0.8,0.1,1.6,0.1,2.4v1.2l0,0.6c0,0.2,0,0.4,0,0.6
		l-0.1,1.2l0,0.6l0,0.3l0,0.3l-0.1,1.2c0,0.4-0.1,0.8-0.1,1.2l-0.2,1.2l-0.1,0.6c0,0.2-0.1,0.4-0.1,0.6l-0.2,1.2l-0.1,0.6l-0.1,0.6
		l-0.3,1.2c0,0.2-0.1,0.4-0.1,0.6l-0.2,0.6c-0.2,0.8-0.4,1.6-0.6,2.4l-0.4,1.2l-0.1,0.3c0,0.1-0.1,0.2-0.1,0.3l-0.2,0.6l-0.4,1.2
		c-0.1,0.2-0.1,0.4-0.2,0.6l-0.2,0.6l-0.5,1.2c-0.1,0.2-0.2,0.4-0.2,0.6l-0.3,0.6l-0.5,1.1l-0.5,1.1l-0.6,1.1l-0.6,1.1l-0.3,0.5
		l-0.1,0.3l-0.1,0.1l-0.1,0.1l-0.6,1l-0.3,0.5l-0.2,0.3c0,0.1-0.1,0.2-0.2,0.3l-0.7,1.1l-0.4,0.6l-0.1,0.1l0,0.1l0,0l-0.1,0.2
		c-0.2,0.3-0.4,0.6-0.7,0.9c-0.4,0.6-0.9,1.1-1.4,1.5c-0.5,0.4-0.9,0.7-1.3,0.9c-0.2,0.1-0.3,0.2-0.5,0.2c-0.1,0-0.3,0.1-0.4,0.1h0
		l0,0c0,0,0,0,0,0c0,0,0,0,0,0l0,0l0,0l0,0l-0.2,0l-0.1,0l0,0c0,0,0,0,0,0h0c0,0,0,0,0,0c0,0,0,0,0,0c0,0-0.1,0-0.1,0c0,0,0,0,0,0
		l0,0c0,0-0.1,0-0.1,0c-0.3-0.1-0.6-0.4-1-0.9c-0.4-0.4-0.7-1-1-1.7l-0.1-0.2l-0.1-0.3l-0.1-0.3l-0.1-0.2c-0.1-0.1-0.1-0.4-0.2-0.6
		l0-0.1l0,0c0,0,0,0,0,0l0,0l-0.1-0.1l-0.1-0.3c-0.3-0.8-0.5-1.6-0.8-2.4c-0.5-1.6-0.9-3.3-1.3-5c-0.4-1.7-0.7-3.4-0.9-5.1
		c-0.2-1.7-0.4-3.4-0.5-5.1c-0.1-1.7-0.1-3.5-0.1-5.2l0-0.3c0-1-0.7-1.9-1.7-2.1c-1.1-0.2-2.2,0.6-2.4,1.7l-0.3,1.8L93.3,62
		l-0.2,0.9L93,63.7l-0.2,0.9l-0.2,0.9l-0.2,0.9l-0.2,0.9L91.9,68l-0.3,0.8l-0.3,0.8l-0.3,0.8l-0.3,0.8l-0.3,0.8l-0.4,0.8l-0.4,0.7
		l-0.4,0.7l-0.5,0.7l-0.5,0.7l-0.5,0.7l-0.2,0.2c0-0.1,0-0.3,0-0.4c0-1.4-0.1-2.9-0.1-4.4c0-0.7,0-1.5-0.1-2.2c0-0.7,0-1.5,0-2.2
		c-0.1-3-0.1-5.9-0.1-8.8c0-2.9-0.1-5.8-0.1-8.6c0-0.7,0-1.4,0-2.1c0-0.7,0-1.4,0-2c0-1.3,0-2.7,0-3.9c0-2.6,0-5,0-7.3
		c0-1.1,0-2.2,0-3.3c0-1,0-2,0-3c0-1.9-0.1-3.5-0.1-4.8c0-0.7,0-1.3-0.1-1.8c0-0.5,0-1-0.1-1.3c0-0.7-0.1-1.1-0.1-1.1
		s-0.2,0.3-0.5,1c-0.2,0.3-0.4,0.7-0.6,1.2c-0.2,0.5-0.5,1-0.8,1.7c-0.5,1.3-1.2,2.8-1.8,4.6c-0.3,0.9-0.7,1.8-1,2.8
		c-0.2,0.5-0.3,1-0.5,1.6c-0.1,0.3-0.2,0.5-0.3,0.8C81.1,33.4,81,33.7,81,34c-0.6,2.2-1.3,4.7-1.8,7.3c-0.1,0.7-0.3,1.3-0.4,2
		c-0.1,0.7-0.3,1.4-0.4,2c-0.1,0.7-0.2,1.4-0.3,2.1c-0.1,0.7-0.2,1.4-0.3,2.1c0,0.4-0.1,0.7-0.1,1.1c0,0.2,0,0.4-0.1,0.5
		c0,0.2,0,0.4-0.1,0.5c-0.1,0.7-0.2,1.5-0.2,2.2c-0.1,1.5-0.2,3-0.3,4.5c-0.2,3.1-0.2,6.2-0.2,9.3c0,1.6,0.1,3.1,0.2,4.6
		c0,0.8,0.1,1.5,0.2,2.3c0,0.4,0.1,0.8,0.1,1.1l0,0.6l0,0.3l0,0.3c0,0.4,0.1,0.7,0.1,1.1c0,0.4,0.1,0.8,0.1,1.2
		c0.1,0.4,0.1,0.8,0.2,1.2c0.1,0.4,0.1,0.8,0.2,1.2c0.2,1.5,0.5,3,0.9,4.5c-0.3,0.5-0.7,1-1.1,1.4c-0.5,0.6-1.1,1.2-1.7,1.6
		c-0.6,0.4-1.2,0.7-1.8,0.8c-0.1,0-0.1,0-0.2,0l-0.3,0.1l-0.2,0l0,0c0,0,0.1,0,0.1,0l0,0l-0.1,0c-0.1,0-0.1,0-0.2,0
		c-0.3,0-0.6,0-0.9-0.1c-0.3,0-0.6-0.1-0.9-0.2c-0.3-0.1-0.6-0.2-0.9-0.4c-0.6-0.3-1.2-0.7-1.8-1.2c-0.6-0.5-1.1-1.1-1.7-1.7
		c-0.5-0.6-1.1-1.3-1.5-2c-0.1-0.2-0.2-0.4-0.4-0.5l-0.3-0.5l-0.1-0.2l0-0.1c0,0,0,0,0,0l0,0l0,0c0,0,0,0,0,0l0,0l0,0l-0.2-0.3
		l-0.3-0.6L63.5,81c-0.2-0.4-0.4-0.8-0.6-1.2l-0.6-1.2l-0.6-1.3c-0.2-0.4-0.4-0.8-0.6-1.2l-0.5-1.3l-0.3-0.6
		c-0.1-0.2-0.2-0.4-0.2-0.6l-0.5-1.3l-0.2-0.6l-0.1-0.3l-0.1-0.3l-0.4-1.3c-0.3-0.9-0.5-1.8-0.7-2.6l-0.2-0.7
		c-0.1-0.2-0.1-0.4-0.1-0.7l-0.3-1.3c-0.4-1.8-0.6-3.6-0.8-5.4c0-0.2-0.1-0.5-0.1-0.7l0-0.7l-0.1-1.4c0-0.5,0-0.9-0.1-1.4l0-0.3
		c0,0,0-0.1,0-0.1l0.1-0.5l0.1-0.5l0.1-1c0-0.3,0.1-0.7,0.1-1l0.1-1c0.3-2.8,0.4-5.5,0.4-8.3l0-0.2c0-2.6-1.9-4.8-4.5-5.2
		c-2.8-0.4-5.5,1.6-5.8,4.5c-0.1,1.1-0.3,2.1-0.4,3.2l0,0.1c-0.9-1-2.1-1.8-3.4-2.4c-0.3-0.2-0.7-0.3-1.1-0.4
		c-0.2-0.1-0.4-0.1-0.5-0.2l-0.1,0l-0.1,0h0c0,0-0.1,0-0.1,0l0,0L41,41.2l-0.5-0.1c0,0-0.1,0-0.1,0l-0.1,0l-0.3,0l-0.3,0l-0.2,0
		l-0.1,0l-0.6,0c-0.2,0-0.4,0-0.6,0l-0.6,0c-0.2,0-0.4,0-0.6,0.1c-0.2,0-0.4,0-0.6,0.1c-0.4,0.1-0.8,0.1-1.1,0.2l-0.6,0.1
		c-0.2,0.1-0.4,0.1-0.5,0.2c-0.7,0.2-1.4,0.5-2.1,0.8c-0.2,0.1-0.3,0.2-0.5,0.3c-0.2,0.1-0.3,0.2-0.5,0.3l-0.5,0.3l-0.2,0.1
		c-0.1,0.1-0.2,0.1-0.2,0.2c-0.3,0.2-0.6,0.4-0.9,0.7l-0.5,0.3L28.3,45c-0.3,0.2-0.6,0.5-0.8,0.8l-0.1,0.1l-0.1,0.1c0,0,0,0-0.1,0.1
		l0,0l-0.2,0.2l-0.3,0.4c-0.1,0.1-0.1,0.1-0.2,0.2l-0.2,0.2c-0.1,0.1-0.3,0.3-0.4,0.5l-0.3,0.4c-0.1,0.1-0.2,0.3-0.3,0.4
		c-0.2,0.3-0.4,0.6-0.6,0.9l-0.3,0.5L24,50.2c-0.8,1.3-1.4,2.6-2,4c-0.5,1.4-1,2.7-1.4,4.1c-0.1,0.3-0.2,0.7-0.3,1l-0.2,1
		c-0.1,0.3-0.1,0.7-0.2,1.1l-0.1,0.5l-0.1,0.5c-0.2,1.4-0.4,2.8-0.5,4.3c-0.1,1.4-0.1,2.9-0.1,4.3c0,1.4,0.2,2.9,0.4,4.3l0.2,1.1
		c0.1,0.4,0.1,0.7,0.2,1.1c0.1,0.4,0.1,0.7,0.2,1.1l0.1,0.3l0,0.1l0,0.2c0,0.2,0.1,0.3,0.1,0.5l0.1,0.3l0.1,0.3
		c0,0.2,0.1,0.4,0.2,0.6c0.1,0.4,0.2,0.7,0.3,1.1c0.3,0.7,0.5,1.5,0.9,2.2c0.7,1.5,1.5,3,2.8,4.4c0.3,0.4,0.6,0.7,1,1.1
		c0.4,0.3,0.7,0.7,1.2,1c0.4,0.3,0.9,0.6,1.3,0.9c0.5,0.3,1,0.5,1.5,0.7c0.5,0.2,1.1,0.4,1.6,0.5l0.7,0.1l0.1,0l0,0l0.1,0l0.3,0
		c0.2,0,0.3,0,0.5,0.1l0.3,0c0,0,0.1,0,0.1,0l0.1,0l0.4,0c0.1,0,0.3,0,0.4,0l0.4,0l0.4,0l0.4-0.1l0.4-0.1c0.1,0,0.3,0,0.4-0.1
		c1-0.2,2-0.5,2.9-0.9c0.9-0.4,1.7-0.9,2.5-1.4c0.8-0.5,1.5-1.2,2.2-1.8l0.4-0.4l0,0l0,0l0,0l0.1-0.1l0.3-0.3
		c0.2-0.2,0.3-0.4,0.4-0.5l0.2-0.3l0.2-0.3c0.5-0.7,1-1.4,1.4-2.1c0.4-0.7,0.8-1.4,1.1-2.1c0.3-0.7,0.7-1.4,1-2
		c0.1-0.3,0.3-0.7,0.4-1l0.1-0.2l0.1-0.3l0.2-0.5l0.4-0.9l0.2-0.5c0.1-0.2,0.1-0.3,0.2-0.5c0.2-0.5,0.4-1,0.5-1.4l0.1,0.2l0.6,1.5
		c0.1,0.2,0.2,0.5,0.3,0.7l0.4,0.7l0.7,1.4c0.2,0.5,0.5,0.9,0.8,1.4l0.8,1.4l0.8,1.3l0.4,0.7c0.1,0.2,0.3,0.4,0.4,0.7l0.9,1.3
		l0.5,0.6l0.2,0.3l0.1,0.1l0.1,0.1l0.1,0.1l0.2,0.3l0.3,0.3c0.2,0.2,0.4,0.4,0.5,0.6c1.5,1.7,3.1,3.3,5.1,4.7c0.5,0.3,1,0.6,1.6,0.9
		c0.6,0.3,1.1,0.5,1.8,0.8c0.6,0.2,1.3,0.4,1.9,0.5c0.7,0.1,1.4,0.2,2.1,0.2c0.7,0,1.4-0.1,2.1-0.2c0.2,0,0.3-0.1,0.5-0.1l0.1,0
		l0.1,0l0.1,0l0,0l0.2-0.1l0.2-0.1l0.3-0.1c0.2-0.1,0.4-0.1,0.5-0.2c1.3-0.5,2.4-1.3,3.3-2.2c0.4-0.4,0.8-0.8,1.2-1.2
		c0,0.1,0.1,0.1,0.1,0.2c0.1,0.2,0.1,0.3,0.2,0.5c0.2,0.3,0.3,0.7,0.5,1c0.2,0.3,0.3,0.7,0.5,1c0.1,0.2,0.2,0.3,0.3,0.5
		c0.1,0.2,0.2,0.3,0.3,0.5c0.1,0.2,0.2,0.3,0.3,0.5c0.1,0.2,0.2,0.3,0.3,0.5c0.1,0.2,0.2,0.3,0.3,0.5l0.1,0.2l0,0c0,0,0,0,0,0.1l0,0
		l0.1,0.1c0.1,0.1,0.2,0.3,0.3,0.4c0.1,0.2,0.2,0.3,0.3,0.5c0.1,0.2,0.2,0.3,0.3,0.4c0.1,0.1,0.2,0.3,0.3,0.4
		c0.1,0.1,0.2,0.3,0.3,0.4c0.1,0.1,0.2,0.3,0.3,0.4c0.5,0.5,0.9,1,1.4,1.4c1,0.9,1.9,1.6,2.9,2.3c1,0.6,2,1.2,2.9,1.6
		c1.9,0.8,3.7,1.2,5.1,1.3c0.7,0.1,1.4,0,1.9,0c0.1,0,0.3,0,0.4,0c0.1,0,0.2,0,0.4,0c0.2,0,0.4-0.1,0.6-0.1c0.2,0,0.3-0.1,0.5-0.1
		c0.1,0,0.3-0.1,0.3-0.1c0.2-0.1,0.3-0.1,0.3-0.1s-0.1,0-0.3-0.1c-0.1,0-0.2-0.1-0.3-0.1c-0.1,0-0.3-0.1-0.5-0.2
		c-0.3-0.1-0.7-0.3-1.2-0.5c-0.2-0.1-0.5-0.2-0.7-0.4c-0.1-0.1-0.3-0.1-0.4-0.2c-0.1-0.1-0.3-0.2-0.4-0.2c-1.1-0.6-2.3-1.5-3.5-2.7
		c-0.3-0.3-0.6-0.6-0.9-0.9c-0.3-0.3-0.6-0.7-0.9-1c-0.3-0.4-0.6-0.7-0.8-1.1c-0.3-0.4-0.5-0.8-0.8-1.2c-0.1-0.2-0.2-0.4-0.4-0.7
		c-0.1-0.2-0.2-0.4-0.3-0.7c-0.1-0.2-0.2-0.5-0.3-0.7c-0.1-0.1-0.1-0.2-0.2-0.4c0-0.1-0.1-0.2-0.1-0.3c0-0.1-0.1-0.2-0.1-0.3
		C90,94.3,90,94.1,89.9,94c-0.1-0.2-0.2-0.5-0.3-0.7c0-0.1-0.1-0.3-0.1-0.4c0-0.1-0.1-0.3-0.1-0.4c0-0.1-0.1-0.3-0.1-0.4
		c0-0.1-0.1-0.3-0.1-0.4c-0.3-1.1-0.5-2.2-0.8-3.4c0-0.3-0.1-0.6-0.1-0.9c0-0.3-0.1-0.6-0.1-0.9c0-0.3-0.1-0.6-0.1-0.9
		c0-0.3-0.1-0.6-0.1-1c-0.1-1.3-0.2-2.6-0.3-4c0-0.3,0-0.7,0-1c0-0.3,0-0.5,0-0.8v0c0.2-0.2,0.4-0.3,0.6-0.5
		c0.2-0.2,0.5-0.4,0.7-0.6c0.2-0.2,0.5-0.4,0.7-0.7l0.7-0.7l0.6-0.7l0.6-0.7l0.3-0.4l0.1-0.2l0.1-0.1l0,0l0,0l0,0l0,0l0,0l0.5-0.8
		l0.5-0.8l0.1-0.1c0.1,1.3,0.2,2.7,0.4,4c0.2,1.9,0.5,3.7,0.9,5.6c0.2,0.9,0.4,1.8,0.6,2.8l0.1,0.3l0,0.2l0.1,0.2
		c0.1,0.2,0.1,0.4,0.2,0.7l0.1,0.4l0.1,0.4l0.1,0.4l0.1,0.4c0.4,1,0.8,2,1.5,3.1l0.3,0.4c0,0.1,0.1,0.1,0.1,0.2l0.1,0.2l0.3,0.4
		c0.1,0.1,0.2,0.3,0.3,0.4c0.1,0.1,0.2,0.3,0.4,0.4l0.4,0.4c0.1,0.1,0.1,0.1,0.2,0.2l0.2,0.2c0.1,0.1,0.3,0.2,0.4,0.3
		c0.1,0.1,0.3,0.2,0.5,0.3L101,94c0.1,0,0.2,0.1,0.3,0.1c0.2,0.1,0.3,0.2,0.5,0.3c0.1,0,0.2,0.1,0.3,0.1l0.3,0.1
		c0.2,0.1,0.4,0.1,0.5,0.2l0.5,0.1l0,0l0.1,0l0.2,0c0.1,0,0.2,0,0.3,0.1c0.1,0,0.1,0,0.2,0l0.1,0l0.3,0c0.8,0.1,1.6,0,2.3-0.1
		c0.7-0.1,1.4-0.3,2.1-0.6c1.3-0.5,2.3-1.2,3.3-1.9c0.9-0.7,1.7-1.5,2.5-2.3c0.4-0.4,0.7-0.8,1.1-1.2l0.2-0.3l0.3-0.3l0.4-0.5
		l0.8-1.1c0.1-0.1,0.1-0.2,0.2-0.3l0.2-0.3l0.4-0.6l0.8-1.2l0.1-0.2l0.1-0.2l0.2-0.3l0.4-0.6l0.8-1.2c0.2-0.4,0.5-0.8,0.7-1.3
		c0.2-0.4,0.5-0.8,0.7-1.3l0.7-1.3c0.2-0.4,0.4-0.7,0.5-1.1c0,0.1,0,0.2,0.1,0.3c0.4,1.9,0.8,3.8,1.2,5.8l0.6,2.6
		c-1.7,2.3-3.4,4.6-5,7c-0.5,0.8-1.1,1.6-1.6,2.5c-0.5,0.8-1,1.7-1.5,2.5l-0.4,0.6l-0.4,0.6c-0.2,0.4-0.5,0.9-0.7,1.3l-0.7,1.3
		l-0.7,1.3c-0.9,1.8-1.8,3.6-2.5,5.4c-0.8,1.8-1.5,3.7-2.1,5.6c-0.6,1.9-1.2,3.9-1.7,5.8c-0.5,2-0.8,4-1.1,6c-0.3,2-0.4,4.1-0.4,6.2
		l0,1.6l0,0.2l0,0.2l0,0.4l0,0.8l0,0.4l0,0.2l0,0.2l0.1,0.7l0.1,0.7l0,0.1c0,0,0,0,0,0.1l0,0.1l0,0.2c0,0.1,0,0.3,0,0.4
		c0.1,1.1,0.3,2.2,0.6,3.3c0.3,1.1,0.6,2.2,1.1,3.3c0.5,1.1,1,2.2,1.7,3.2c0.4,0.5,0.8,1,1.2,1.5c0.5,0.5,0.9,1,1.5,1.4
		c0.5,0.4,1.1,0.8,1.8,1.2c0.3,0.2,0.6,0.3,1,0.5l0.3,0.1l0.2,0.1l0.2,0.1l0.1,0c0,0,0,0,0,0l0,0c0,0,0,0,0.1,0l0.1,0
		c1.4,0.5,2.9,0.7,4.2,0.7c0.7,0,1.4-0.1,2-0.2c0.3-0.1,0.7-0.1,1-0.2l0.5-0.1l0.5-0.1c0.3-0.1,0.6-0.2,0.9-0.3
		c0.3-0.1,0.6-0.2,0.9-0.3l0.4-0.2c0.2-0.1,0.3-0.1,0.5-0.2c0.4-0.2,0.5-0.3,0.8-0.4l0,0c0,0,0.1-0.1,0.1-0.1l0,0c0,0,0,0,0,0
		l0.1-0.1l0.2-0.1l0.4-0.2l0.4-0.2c0.1-0.1,0.3-0.2,0.4-0.3c0.3-0.2,0.5-0.3,0.8-0.5l0.7-0.6c1-0.8,1.9-1.6,2.7-2.5l0.3-0.3
		c0.1-0.1,0.2-0.2,0.3-0.3c0.2-0.2,0.4-0.5,0.6-0.7c0.4-0.5,0.7-1,1-1.5c0.3-0.5,0.6-1,0.9-1.5c0.1-0.3,0.3-0.5,0.4-0.8l0.2-0.4
		l0.2-0.4c0.1-0.3,0.2-0.5,0.4-0.8l0.3-0.8c0.1-0.3,0.2-0.5,0.3-0.8c0.1-0.3,0.2-0.5,0.3-0.8c0.2-0.5,0.4-1.1,0.5-1.6
		c0.2-0.5,0.3-1.1,0.4-1.6c0.3-1.1,0.5-2.2,0.6-3.2c0.2-1.1,0.3-2.1,0.4-3.2c0-0.5,0.1-1.1,0.1-1.6c0-0.5,0.1-1.1,0.1-1.6
		c0-0.5,0-1.1,0-1.6C141.4,123.1,141.4,122.6,141.4,122.1z M46.3,46.6c0,0.3,0,0.5-0.1,0.8l0,1.6l0,0.8c0,0.3,0,0.5,0,0.8l0,0
		c-0.2,2-0.5,4-0.9,6c-0.4,2.5-1,4.9-1.6,7.3c-0.6,2.4-1.3,4.8-2.1,7.2L41,72.9c-0.1,0.1-0.1,0.3-0.2,0.4l-0.2,0.5l-0.3,0.9
		l-0.2,0.5l0,0.1l0,0.1h0l0,0l0,0L40,75.6c-0.1,0.3-0.2,0.6-0.3,0.8C39.5,77,39.2,77.5,39,78c-0.5,1-1,1.9-1.5,2.7l-0.1,0.1
		l-0.1,0.1c-0.1,0.1-0.1,0.2-0.2,0.2l-0.1,0.1l0,0c0,0,0,0,0,0l0,0l0,0l-0.2,0.2l-0.1,0.1l0,0l0,0c-0.2,0.3-0.5,0.5-0.8,0.7
		c-0.3,0.2-0.6,0.4-0.9,0.6c-0.3,0.2-0.6,0.3-0.8,0.3c0,0-0.1,0-0.1,0c0,0-0.1,0-0.1,0c0,0-0.1,0-0.1,0c0,0-0.1,0-0.1,0
		c-0.1,0-0.1,0-0.2,0c0,0-0.1,0-0.1,0l0,0c0,0,0,0,0,0c0,0,0,0,0,0c0,0,0,0,0,0c0,0,0,0,0,0c0,0,0,0,0,0l0,0l-0.1,0l-0.2,0l-0.1,0
		l-0.1,0c0,0,0,0,0,0c0,0,0.1,0,0.2,0c-0.1,0-0.2,0-0.3-0.1c-0.1,0-0.2-0.1-0.3-0.1c-0.1-0.1-0.2-0.1-0.3-0.2
		c-0.2-0.1-0.5-0.4-0.8-0.6C31,82,30.4,81.2,30,80.3c-0.2-0.4-0.5-0.9-0.7-1.4c-0.1-0.2-0.2-0.5-0.3-0.7c0-0.1-0.1-0.3-0.1-0.4
		l-0.1-0.4c0-0.1-0.1-0.3-0.1-0.4l0-0.1l0,0c0,0,0,0,0,0l0-0.1l-0.1-0.2c-0.1-0.3-0.2-0.6-0.2-0.9c-0.1-0.3-0.2-0.6-0.2-0.9L27.8,74
		c-0.3-1.2-0.5-2.3-0.6-3.5c-0.2-1.2-0.2-2.4-0.3-3.6c0-1.2,0-2.4,0-3.6l0-0.5l0-0.4c0-0.3,0-0.6,0.1-0.9l0.1-0.9
		c0-0.3,0.1-0.6,0.1-0.9c0.2-1.2,0.4-2.4,0.7-3.5c0.3-1.1,0.7-2.3,1.1-3.3l0.2-0.4l0.2-0.4c0.1-0.3,0.3-0.5,0.4-0.8
		c0.1-0.1,0.1-0.3,0.2-0.4l0.2-0.4c0.1-0.1,0.1-0.2,0.2-0.3l0.1-0.2c0-0.1,0.1-0.1,0.1-0.2l0.3-0.4l0.1-0.2l0,0c0,0,0,0,0,0l0,0
		l0.1-0.1c0.2-0.2,0.3-0.4,0.5-0.7l0.3-0.3l0.3-0.3c0.2-0.2,0.4-0.4,0.6-0.6c0.8-0.8,1.8-1.4,2.8-1.9c1-0.5,2.1-0.9,3.2-1.1l0.4-0.1
		l0.1,0l0.1,0l0.2,0l0.2,0l0.1,0c0,0,0.1,0,0.1,0l0.5,0l0.2,0l0,0c0,0,0,0,0,0h0l0.1,0l0.1,0c0.1,0,0.3,0,0.4,0
		c0.3,0,0.6,0.1,0.8,0.2c1.1,0.3,2.2,0.8,3.2,1.5C45.8,46,46.1,46.2,46.3,46.6L46.3,46.6z M131.5,126.4c0,0.4,0,0.9,0,1.3
		c-0.1,1.7-0.3,3.4-0.6,5.1c-0.1,0.4-0.2,0.8-0.3,1.2c-0.1,0.4-0.2,0.8-0.3,1.2c-0.1,0.2-0.1,0.4-0.2,0.6c-0.1,0.2-0.1,0.4-0.2,0.6
		l-0.2,0.6l-0.2,0.5l-0.1,0.3l-0.1,0.3c-0.1,0.2-0.2,0.4-0.2,0.5c-0.2,0.3-0.3,0.7-0.5,1c-0.2,0.3-0.4,0.6-0.6,0.9
		c-0.1,0.1-0.2,0.3-0.3,0.4c-0.1,0.1-0.1,0.1-0.2,0.2l-0.2,0.2c-0.4,0.6-1,1.1-1.5,1.5l-0.4,0.3l-0.4,0.3c-0.1,0.1-0.1,0.1-0.2,0.2
		l-0.2,0.1l-0.2,0.1l-0.1,0.1l-0.1,0c0,0,0,0,0,0c0,0,0,0,0.1,0l0,0c-0.2,0.1-0.5,0.3-0.5,0.3c-0.1,0-0.1,0.1-0.2,0.1l-0.2,0.1
		c-0.1,0.1-0.3,0.1-0.5,0.2c-0.2,0.1-0.3,0.1-0.5,0.2l-0.2,0.1l-0.2,0.1c-0.1,0.1-0.3,0.1-0.4,0.1c-0.3,0.1-0.6,0.1-0.8,0.1
		c-0.6,0.1-1,0-1.5-0.1l0,0c0,0,0,0,0.1,0c0,0,0,0,0,0l-0.1,0l-0.2-0.1l-0.1,0c0,0-0.1,0-0.1,0c0,0,0,0,0,0c0,0,0,0,0,0c0,0,0,0,0,0
		l0,0l-0.2-0.1c-0.2-0.1-0.4-0.2-0.7-0.4c-0.2-0.1-0.4-0.3-0.7-0.5c-0.2-0.2-0.4-0.4-0.6-0.7c-0.4-0.5-0.8-1.1-1.1-1.8
		c-0.7-1.3-1.2-2.9-1.6-4.6c0-0.1,0-0.2-0.1-0.3l0-0.2l0,0c0,0,0,0,0,0l0-0.1l-0.1-0.7l-0.1-0.7l0-0.2c0-0.1,0-0.1,0-0.2l0-0.3
		l-0.1-0.6c0-0.2-0.1-0.4-0.1-0.7l-0.1-1.4c-0.1-1.8-0.2-3.6-0.1-5.5l0.1-1.4l0.1-1.4c0-0.5,0.1-0.9,0.1-1.4c0-0.5,0.1-0.9,0.2-1.4
		c0.2-1.8,0.5-3.7,1-5.5c0.4-1.8,0.9-3.7,1.4-5.5c0.5-1.8,1.1-3.6,1.8-5.4c0.6-1.8,1.4-3.6,2.1-5.3c0.7-1.8,1.5-3.5,2.3-5.3
		c1.1-2.4,2.3-4.7,3.5-7l1.7,7.9c0.4,1.9,0.8,3.8,1.2,5.6c0.1,0.5,0.2,0.9,0.3,1.4l0.3,1.4l0.3,1.4l0.1,0.7l0.1,0.7l0.5,2.8l0.1,0.7
		l0.1,0.7l0.4,2.8l0.1,0.7l0.1,0.7l0.4,2.8l0.1,0.7l0,0.1c0,0,0,0,0,0l0,0l0,0.2l0,0.4l0,0.4l0,0.3l0.1,0.6c0.1,0.9,0.2,1.8,0.2,2.7
		c0,0.4,0,0.9,0.1,1.3c0,0.4,0,0.9,0,1.3C131.5,125.5,131.5,126,131.5,126.4z M264.7,99c-0.5-0.1-1.1-0.3-1.6-0.6
		c-0.5-0.2-1-0.5-1.4-0.8c-0.9-0.6-1.7-1.3-2.4-2.2c-0.2-0.2-0.3-0.4-0.5-0.6c-0.1-0.1-0.2-0.2-0.2-0.3l-0.2-0.3l-0.1-0.1l0,0l0,0
		l0,0c0,0,0,0,0,0l-0.1-0.2l-0.2-0.3c-0.1-0.2-0.2-0.5-0.4-0.7c-0.9-1.9-1.4-4-1.8-6.2c-0.2-1.1-0.4-2.2-0.5-3.4
		c-0.2-1.2-0.3-2.4-0.5-3.5c-0.2-1.2-0.4-2.4-0.5-3.5l-0.6-3.5l-0.6-3.5l-0.6-3.5l-0.6-3.5l-0.7-3.5l-0.7-3.5l-0.1-0.4l0-0.2
		l-0.1-0.3c-0.1-0.3-0.1-0.7-0.2-1c-0.2-0.7-0.4-1.4-0.6-2.2c-0.3-0.7-0.6-1.5-1-2.3s-1-1.6-1.8-2.5c-0.8-0.8-1.8-1.6-3-2.2
		c-0.3-0.1-0.6-0.3-0.9-0.4l-0.2-0.1l-0.1,0l-0.1,0l-0.2,0c-0.1,0-0.2-0.1-0.3-0.1l-0.3-0.1l-0.2,0l0,0c0,0-0.1,0-0.2,0l-0.1,0
		l-0.3,0c-0.2,0-0.3,0-0.5,0c-0.2,0-0.3,0-0.5,0c-1.3,0-2.4,0.3-3.4,0.6c-0.5,0.2-0.9,0.4-1.3,0.6c-0.2,0.1-0.4,0.2-0.6,0.3
		l-0.3,0.2l-0.2,0.1l-0.1,0.1l-0.1,0.1l-0.2,0.2l-0.5,0.3l-0.2,0.2l-0.2,0.2l-0.5,0.3c-0.2,0.1-0.3,0.2-0.5,0.3l-0.4,0.4l-0.4,0.4
		c-0.1,0.1-0.3,0.3-0.4,0.4c-1.1,1-2.1,2.1-3,3.2c-0.9,1.1-1.7,2.3-2.4,3.4c-0.7,1.2-1.4,2.3-1.9,3.5c-0.3,0.6-0.6,1.2-0.8,1.7
		l-0.2,0.4l-0.2,0.4l-0.4,0.9c-0.3,0.6-0.5,1.2-0.7,1.7c-0.2,0.6-0.5,1.2-0.7,1.7c-0.2,0.6-0.4,1.2-0.6,1.8c0,0.1-0.1,0.2-0.1,0.3
		c0-0.2,0-0.4-0.1-0.6c-0.1-1-0.2-2-0.3-3l-0.2-3c-0.1-1-0.1-2-0.2-3c-0.1-1-0.1-2-0.2-3c-0.1-1-0.1-2-0.2-3c0-1-0.1-2-0.2-3.1
		c0-1-0.1-2-0.1-3.1c0-1-0.1-2.1-0.1-3.1c-0.3,1-0.6,2-0.8,3c-0.2,1-0.5,2-0.7,3c-0.2,1-0.5,2-0.7,3c-0.2,1-0.4,2-0.6,3
		c-0.2,1-0.3,2-0.5,3.1c-0.2,1-0.3,2-0.4,3.1l-0.4,3.1c-0.1,1-0.2,2.1-0.3,3.1c-0.1,1-0.2,2.1-0.2,3.1c-0.1,1-0.1,2.1-0.2,3.1
		c0,1-0.1,2.1-0.1,3.1c0,1,0,2.1,0,3.1l0,3.1l0.1,3.1l0.2,3.1c0.1,1,0.1,2.1,0.2,3.1c0.1,1.8,1.4,3.5,3.2,4c2.4,0.7,4.9-0.6,5.6-3
		l0.1-0.4l2-6.8c0.7-2.2,1.4-4.5,2.1-6.7c0.2-0.6,0.4-1.1,0.5-1.6c0.2-0.5,0.4-1.1,0.6-1.6l0.3-0.8l0.3-0.8l0.3-0.8l0.3-0.8l0.3-0.8
		c0.1-0.3,0.2-0.5,0.3-0.8c0.2-0.5,0.4-1.1,0.6-1.6c0.4-1,0.9-2.1,1.3-3.1l0.3-0.8l0.2-0.4l0.2-0.4c0.3-0.6,0.5-1,0.7-1.5
		c0.5-1,1-1.9,1.5-2.7c0.5-0.9,1.1-1.7,1.6-2.4c0.6-0.8,1.2-1.4,1.8-2c0.1-0.1,0.2-0.2,0.2-0.2l0.2-0.2l0.2-0.2
		c0.1-0.1,0.2-0.1,0.2-0.2l0.2-0.2l0.1-0.1l0.1-0.1l0.5-0.3l0.2-0.1l0.2-0.1c0.1,0,0.1-0.1,0.2-0.1c0-0.1-0.1-0.1-0.1-0.2
		c0,0,0,0,0-0.1c0,0,0,0,0,0c-0.1,0-0.1-0.1-0.1-0.1c0,0,0,0,0,0c0,0,0,0,0,0c0,0,0.1,0.1,0.1,0.1c0,0,0.1,0,0.1,0c0,0,0,0,0,0l0,0
		l0,0l0,0c0,0,0.1,0,0.1,0l0,0l0,0c0,0,0,0,0,0c0,0,0,0,0.1,0c0,0,0,0,0,0c0.1,0,0.1,0-0.1,0.1c0,0-0.1,0-0.1,0.1c0,0,0,0,0,0
		c0.2,0.2,0.3,0.5,0.5,0.9c0.2,0.4,0.3,0.8,0.5,1.2c0.1,0.2,0.1,0.5,0.2,0.7l0.2,0.8l1,3.4l1,3.4l1,3.4l1,3.4l1,3.4l1.1,3.4
		c0.4,1.1,0.7,2.3,1.1,3.4c0.4,1.1,0.7,2.3,1.1,3.4c0.4,1.1,0.8,2.3,1.2,3.5c0.5,1.2,1,2.4,1.6,3.5c0.1,0.1,0.1,0.3,0.2,0.4l0.2,0.4
		c0.2,0.3,0.3,0.6,0.5,0.8c0.1,0.1,0.2,0.3,0.3,0.4l0.3,0.4c0.2,0.3,0.4,0.5,0.6,0.8c0.2,0.3,0.4,0.5,0.6,0.8l0.3,0.4l0.2,0.2
		c0,0,0,0,0,0l0,0l0,0l0.1,0.1l0.4,0.3c0.1,0.1,0.3,0.2,0.4,0.3c0.3,0.2,0.5,0.4,0.8,0.6c0.5,0.4,1.1,0.8,1.7,1.1
		c0.6,0.3,1.2,0.6,1.8,0.8c0.6,0.2,1.3,0.4,1.9,0.5c0.6,0.1,1.3,0.1,1.9,0.1c1.3-0.1,2.5-0.4,3.5-1.1C267,99.3,265.8,99.2,264.7,99z
		 M240,53.3L240,53.3L240,53.3C240,53.4,240,53.3,240,53.3z M240,53.4c0,0-0.1,0-0.1,0.1c0-0.1-0.1-0.1-0.1-0.2c0,0,0,0,0-0.1
		c0,0,0.1,0,0.1,0c0,0,0,0,0,0l0,0l0,0l0,0C239.9,53.3,239.9,53.3,240,53.4L240,53.4L240,53.4C239.9,53.3,239.9,53.3,240,53.4
		C240,53.3,240,53.3,240,53.4C240,53.4,240,53.4,240,53.4C240.2,53.4,240.1,53.4,240,53.4z"/>
</g>
</svg>
